<?xml version="1.0" encoding="utf-8"?>
<!-- Generator: Adobe Illustrator 16.0.0, SVG Export Plug-In . SVG Version: 6.00 Build 0)  -->
<!DOCTYPE svg PUBLIC "-//W3C//DTD SVG 1.1//EN" "http://www.w3.org/Graphics/SVG/1.1/DTD/svg11.dtd">
<svg version="1.1" id="Layer_1" xmlns="http://www.w3.org/2000/svg" xmlns:xlink="http://www.w3.org/1999/xlink" x="0px" y="0px"
	 width="1024px" height="435px" viewBox="0 0 1024 435" enable-background="new 0 0 1024 435" xml:space="preserve">
<g>
	<path fill="#F7941D" d="M342.78,184.818v-7.8h33.471c2.088,0,3.695-0.532,4.821-1.597c1.125-1.064,1.689-2.477,1.689-4.238
		c0-1.924-0.563-3.367-1.689-4.33c-1.126-0.961-2.733-1.443-4.821-1.443h-20.513c-2.088,0-3.982-0.317-5.681-0.952
		c-1.7-0.634-3.132-1.514-4.299-2.641c-1.167-1.125-2.068-2.466-2.702-4.022c-0.635-1.556-0.952-3.255-0.952-5.098
		c0-1.801,0.297-3.47,0.891-5.005c0.593-1.535,1.474-2.856,2.641-3.961s2.61-1.975,4.33-2.61c1.72-0.634,3.685-0.952,5.896-0.952
		h32.059v7.8h-32.059c-1.802,0-3.194,0.482-4.176,1.443c-0.983,0.962-1.474,2.303-1.474,4.022s0.501,3.051,1.505,3.992
		c1.003,0.942,2.364,1.413,4.084,1.413h20.451c4.545,0,7.994,1.065,10.349,3.193c2.354,2.129,3.531,5.364,3.531,9.704
		c0,1.884-0.287,3.624-0.86,5.22c-0.574,1.597-1.434,2.979-2.579,4.146c-1.147,1.167-2.59,2.079-4.33,2.733
		c-1.741,0.655-3.777,0.982-6.111,0.982H342.78z"/>
	<path fill="#F7941D" d="M393.815,140.169h9.52l20.267,34.393l20.206-34.393h8.966l-25.733,42.745
		c-0.451,0.778-0.982,1.393-1.597,1.842c-0.614,0.45-1.331,0.676-2.149,0.676c-0.86,0-1.597-0.226-2.211-0.676
		c-0.614-0.45-1.147-1.064-1.597-1.842L393.815,140.169z"/>
	<path fill="#F7941D" d="M457.564,184.818v-44.649h7.8v36.849h30.032v7.8H457.564z"/>
</g>
<g>
	<g>
		<path fill="#0674ED" d="M439.947,197.1l-17.223,22.364h-53.732v11.954h41.773c10.455,0,18.427,1.952,23.908,5.851
			c5.486,3.901,8.231,9.79,8.231,17.676c0,8.825-2.874,15.726-8.614,20.694c-5.744,4.972-15.128,7.455-28.147,7.455h-68.007
			l17.099-22.108h52.96c3.086,0,5.375-0.494,6.879-1.479c1.495-0.985,2.247-2.591,2.247-4.821c0-2.227-0.752-3.812-2.247-4.755
			c-1.504-0.943-3.792-1.414-6.879-1.414h-65.557V197.1H439.947z"/>
		<path fill="#0674ED" d="M503.058,229.362h55.019v53.731h-59c-7.456,0-14.353-1.111-20.697-3.342
			c-6.344-2.227-11.807-5.29-16.388-9.19c-4.586-3.899-8.185-8.526-10.801-13.884c-2.611-5.354-3.921-11.16-3.921-17.416
			s1.31-11.976,3.921-17.161c2.616-5.185,6.215-9.643,10.801-13.37c4.581-3.729,10.044-6.598,16.388-8.611
			c6.344-2.012,13.241-3.02,20.697-3.02h61.57l-17.223,22.364h-44.348c-3.603,0-6.944,0.515-10.025,1.543
			c-3.087,1.029-5.768,2.487-8.038,4.372c-2.27,1.885-4.05,4.092-5.333,6.619s-1.929,5.335-1.929,8.42
			c0,3.083,0.618,5.894,1.864,8.42c1.241,2.527,2.999,4.691,5.269,6.491c2.27,1.8,4.95,3.192,8.037,4.178
			c3.082,0.984,6.469,1.479,10.155,1.479h32.521v-12.469h-44.476L503.058,229.362z"/>
		<polygon fill="#E89400" points="592.698,231.292 592.098,231.292 582.132,231.292 569.149,247.873 592.098,247.873 
			592.698,247.873 604.537,247.873 617.52,231.292 		"/>
		<path fill="#0674ED" d="M637.645,283.094l16.069-22.108h21.592c2.575,0,5.251,0,8.038,0c2.781,0,5.204,0.085,7.261,0.256
			c-1.198-1.543-2.592-3.49-4.179-5.848c-1.588-2.357-3.105-4.563-4.56-6.62l-15.428-22.753l-40.36,57.073h-31.494l55.144-77.769
			c1.8-2.484,4.07-4.713,6.811-6.685c2.745-1.971,6.214-2.955,10.417-2.955c4.023,0,7.392,0.92,10.086,2.763
			c2.704,1.844,4.992,4.135,6.879,6.877l53.731,77.769H637.645z"/>
		<path fill="#0674ED" d="M854.244,229.362c0,4.801-0.95,9.149-2.832,13.048c-1.883,3.901-4.651,7.221-8.286,9.962
			c-3.646,2.745-8.083,4.886-13.307,6.426c-5.231,1.544-11.183,2.314-17.869,2.314h-44.988v21.981H740.48v-43.962h74.04
			c4.116,0,7.309-0.898,9.579-2.698c2.269-1.8,3.404-4.198,3.404-7.2c0-2.999-1.136-5.377-3.404-7.133
			c-2.271-1.756-5.463-2.637-9.579-2.637h-74.04L758.09,197.1h53.99c6.686,0,12.637,0.791,17.869,2.375
			c5.222,1.588,9.638,3.793,13.236,6.621c3.604,2.828,6.344,6.215,8.227,10.154C853.294,220.193,854.244,224.565,854.244,229.362z"
			/>
		<path fill="#0674ED" d="M974.815,229.362c0,4.801-0.946,9.149-2.829,13.048c-1.886,3.901-4.65,7.221-8.291,9.962
			c-3.644,2.745-8.078,4.886-13.305,6.426c-5.229,1.544-11.185,2.314-17.869,2.314h-44.989v21.981h-26.478v-43.962h74.041
			c4.11,0,7.303-0.898,9.578-2.698c2.271-1.8,3.404-4.198,3.404-7.2c0-2.999-1.134-5.377-3.404-7.133
			c-2.275-1.756-5.468-2.637-9.578-2.637h-74.041L878.66,197.1h53.99c6.685,0,12.641,0.791,17.868,2.375
			c5.228,1.588,9.639,3.793,13.237,6.621c3.603,2.828,6.345,6.215,8.23,10.154C973.869,220.193,974.815,224.565,974.815,229.362z"/>
	</g>
</g>
<g>
	<g>
		<path fill="#6B6B6B" d="M356.952,302.964l-4.817,17.273h-6.145l-6.478-23.253h4.982l4.817,17.439h0.166l4.75-17.439h5.614
			l4.75,17.439h0.166l4.817-17.439h4.983l-6.478,23.253h-6.145l-4.817-17.273H356.952z"/>
		<path fill="#6B6B6B" d="M379.505,296.984h18.602v3.82h-13.952v5.979h9.633v3.819h-9.633v5.813h14.284v3.82h-18.934V296.984z"/>
		<path fill="#6B6B6B" d="M437.668,320.237h-4.983l-1.827-4.65h-11.46l-1.827,4.65h-4.983l9.633-23.253h5.813L437.668,320.237z
			 M421.059,311.601h8.139l-3.986-9.634h-0.166L421.059,311.601z"/>
		<path fill="#6B6B6B" d="M452.947,296.984c6.311,0,9.633,3.322,9.633,7.641c0,4.982-4.318,6.644-4.318,6.644v0.166l6.145,8.803
			h-5.481l-5.481-7.973h-6.478v7.973h-4.65v-23.253H452.947z M452.947,300.805h-5.979v7.64h5.979c3.156,0,4.816-1.992,4.816-3.819
			C457.763,302.466,456.103,300.805,452.947,300.805z"/>
		<path fill="#6B6B6B" d="M469.222,296.984h18.602v3.82h-13.952v5.979h9.633v3.819h-9.633v5.813h14.284v3.82h-18.934V296.984z"/>
		<path fill="#6B6B6B" d="M515.824,296.32c7.309,0,12.457,5.148,12.457,12.291c0,7.142-5.148,12.29-12.457,12.29
			c-7.308,0-12.457-5.148-12.457-12.29C503.368,301.469,508.517,296.32,515.824,296.32z M515.824,300.307
			c-4.318,0-7.64,3.321-7.64,8.305c0,4.982,3.322,8.304,7.64,8.304c4.319,0,7.641-3.321,7.641-8.304
			C523.465,303.628,520.144,300.307,515.824,300.307z"/>
		<path fill="#6B6B6B" d="M550.603,312.93v-15.945h4.65v23.253h-4.982l-11.46-15.944h-0.167v15.944h-4.65v-23.253h4.983
			l11.46,15.945H550.603z"/>
		<path fill="#6B6B6B" d="M562.293,296.984h18.603v3.82h-13.952v5.979h9.634v3.819h-9.634v5.813h14.284v3.82h-18.935V296.984z"/>
		<path fill="#6B6B6B" d="M616.271,296.984v3.82h-7.973v19.433h-4.65v-19.433h-7.973v-3.82H616.271z"/>
		<path fill="#6B6B6B" d="M632.348,296.32c7.308,0,12.456,5.148,12.456,12.291c0,7.142-5.148,12.29-12.456,12.29
			c-7.309,0-12.457-5.148-12.457-12.29C619.891,301.469,625.039,296.32,632.348,296.32z M632.348,300.307
			c-4.319,0-7.641,3.321-7.641,8.305c0,4.982,3.321,8.304,7.641,8.304c4.318,0,7.64-3.321,7.64-8.304
			C639.987,303.628,636.666,300.307,632.348,300.307z"/>
		<path fill="#6B6B6B" d="M650.382,310.937v-13.952h4.65v13.952c0,3.653,2.325,5.979,5.979,5.979s5.979-2.325,5.979-5.979v-13.952
			h4.65v13.952c0,5.813-4.152,9.965-10.63,9.965S650.382,316.749,650.382,310.937z"/>
		<path fill="#6B6B6B" d="M697.816,298.646l-1.993,3.155c0,0-2.392-1.494-5.48-1.494c-4.983,0-8.305,3.321-8.305,8.305
			c0,4.982,3.321,8.304,8.305,8.304c3.321,0,5.813-1.826,5.813-1.826l1.992,3.155c0,0-3.155,2.657-8.138,2.657
			c-7.641,0-12.789-5.148-12.789-12.29c0-7.143,5.148-12.291,12.789-12.291C694.827,296.32,697.816,298.646,697.816,298.646z"/>
		<path fill="#6B6B6B" d="M724.655,296.984v23.253h-4.65v-9.634h-11.959v9.634h-4.65v-23.253h4.65v9.8h11.959v-9.8H724.655z"/>
		<path fill="#6B6B6B" d="M765.677,320.237h-4.982l-1.827-4.65h-11.461l-1.827,4.65h-4.982l9.634-23.253h5.813L765.677,320.237z
			 M749.067,311.601h8.139l-3.986-9.634h-0.166L749.067,311.601z"/>
		<path fill="#6B6B6B" d="M785.673,302.964l-4.816,17.273h-6.146l-6.478-23.253h4.983l4.816,17.439h0.166l4.75-17.439h5.614
			l4.75,17.439h0.166l4.816-17.439h4.983l-6.478,23.253h-6.146l-4.816-17.273H785.673z"/>
		<path fill="#6B6B6B" d="M830.25,320.237h-4.982l-1.827-4.65h-11.461l-1.827,4.65h-4.982l9.634-23.253h5.813L830.25,320.237z
			 M813.641,311.601h8.139l-3.986-9.634h-0.166L813.641,311.601z"/>
		<path fill="#6B6B6B" d="M848.817,296.984h4.982l-9.467,15.945v7.308h-4.651v-7.308l-9.467-15.945h4.982l6.644,11.294h0.333
			L848.817,296.984z"/>
	</g>
</g>
<rect x="299.316" y="139.877" fill="#BCBCBC" width="3.414" height="142.996"/>
<g>
	<path fill="#0676EE" d="M234.166,296.744l-7.059-6.565c14.04-15.075,21.772-34.732,21.772-55.346
		c0-20.024-7.34-39.259-20.688-54.159l7.179-6.427c14.921,16.668,23.143,38.187,23.143,60.585
		C258.513,257.895,249.862,279.876,234.166,296.744z"/>
</g>
<g>
	<path fill="#0674ED" d="M86.153,270.912c-10.731-19.219-14.57-41.769-10.768-63.498c9.122-52.348,59.134-87.514,111.472-78.388
		c20.125,3.508,38.271,13.078,52.467,27.677l-11.29,10.993c-11.88-12.204-27.055-20.202-43.885-23.138
		c-43.775-7.636-85.599,21.781-93.239,65.561c-3.169,18.181,0.032,37.034,9.015,53.104L86.153,270.912z"/>
</g>
<g>
	<path fill="#E89400" d="M162.248,329.896c-25.533,0-50.022-9.402-68.948-26.479l10.557-11.718
		c16.032,14.467,36.767,22.431,58.391,22.431c21.149,0,41.514-7.656,57.404-21.555l10.385,11.869
		C211.277,320.854,187.193,329.896,162.248,329.896z"/>
</g>
<g>
	<path fill="#E89400" d="M130.528,127.054l-5.947-14.6c-9.099,3.702-17.532,8.462-25.191,14.082v11.755
		c0,3.32-2.699,6.016-6.016,6.016H80.151c-17.814,20.661-28.121,47.377-28.121,76.007c0,7.56,0.734,15.118,2.173,22.471
		l15.479-3.021c-1.255-6.365-1.887-12.9-1.887-19.449C67.795,179.166,92.423,142.556,130.528,127.054z"/>
</g>
<path fill="#0674ED" d="M95.431,138.267c0,1.13-0.917,2.042-2.053,2.042H80.183c-1.13,0-2.048-0.912-2.048-2.042v-12.314
	c0-1.128,0.918-2.042,2.048-2.042h13.195c1.135,0,2.053,0.914,2.053,2.042V138.267z"/>
<path fill="#0674ED" d="M83.764,117.702c-2.326,0-4.212-1.889-4.212-4.21v-19.02c0-2.323,1.887-4.212,4.212-4.212h20.401
	c2.316,0,4.212,1.889,4.212,4.212v19.02c0,2.321-1.896,4.21-4.212,4.21H83.764z"/>
<path fill="#E89400" d="M76.266,120.408c0,1.439-1.177,2.618-2.621,2.618H56.787c-1.449,0-2.621-1.179-2.621-2.618v-15.722
	c0-1.443,1.172-2.613,2.621-2.613h16.858c1.444,0,2.621,1.17,2.621,2.613V120.408z"/>
<path fill-rule="evenodd" clip-rule="evenodd" fill="#0676EE" d="M159.631,275.013c19.433,0.777,33.085-15.551,35.577-29.352
	c0.821-4.557,0.692-4.706-3.885-4.706c-3.239,0-6.474,0.021-9.712-0.002c-3.059-0.02-5.878,0.068-8.766,1.877
	c-4.342,2.707-10.085,0.972-13.099-3.189c-2.953-4.07-2.593-9.708,0.858-13.408c3.488-3.754,9.213-4.505,13.458-1.55
	c1.425,0.985,2.781,1.345,4.457,1.333c9.864-0.049,19.719,0.007,29.574-0.049c1.601-0.011,2.242,0.365,2.486,2.118
	c3.17,22.577-13.583,44.753-36.148,47.424c-4.12,0.489-8.346,0.084-12.517,0.028C161.149,275.526,160.388,275.2,159.631,275.013z"/>
<path fill-rule="evenodd" clip-rule="evenodd" fill="#0676EE" d="M126.837,224.666c0.12,2.12,0.093,3.878,0.351,5.597
	c2.187,15.206,14.28,27.442,29.648,30.171c7.534,1.336,14.93,1.043,22.127-1.716c5.412-2.069,9.652-5.56,12.748-10.44
	c0.374-0.593,0.775-1.164,1.518-2.269c-0.102,1.011-0.083,1.384-0.194,1.709c-4.074,12.443-11.774,21.508-24.896,24.429
	c-12.766,2.853-23.747-1.106-32.222-11.117c-8.697-10.264-11.724-22.172-9.463-35.426
	C126.481,225.406,126.602,225.229,126.837,224.666z"/>
<path fill-rule="evenodd" clip-rule="evenodd" fill="#0676EE" d="M176.48,191.86c-2.533,0.297-5.148,0.309-7.608,0.925
	c-15.377,3.859-24.056,14.206-27.719,29.178c-1.439,5.872-1.343,11.822,0.185,17.702c2.063,8.01,6.611,14.159,13.767,18.55
	c-0.429-0.025-0.876,0.012-1.287-0.102c-13.703-3.68-23.95-15.708-24.983-29.847c-0.66-9.062,2.141-17.265,8.425-23.866
	c10.501-11.036,23.475-15.172,38.515-12.87c0.208,0.034,0.411,0.106,0.623,0.176C176.439,191.724,176.462,191.823,176.48,191.86z"/>
<path fill-rule="evenodd" clip-rule="evenodd" fill="#0676EE" d="M207.065,216.41c-5.527,0-10.814,0.025-16.102-0.047
	c-0.544-0.009-1.208-0.489-1.591-0.943c-12.854-14.774-36.047-12.076-45.298,4.606c-0.138,0.252-0.35,0.451-0.604,0.755
	c0.793-12.201,15.11-25.722,29.039-26.845C187.166,192.758,201.404,201.613,207.065,216.41z"/>
<path fill="#E89400" d="M166.944,172.965c-4.688,0-9.278,0.551-13.754,1.596v-9.4c4.503-0.888,9.112-1.338,13.754-1.338
	c18.833,0,36.559,7.324,49.897,20.624l5.449-5.47c-14.792-14.75-34.451-22.877-55.346-22.877c-4.637,0-9.232,0.415-13.754,1.216
	c-2.602,0.458-5.181,1.045-7.732,1.771v8.067v9.772v8.275l0.028,0.066c2.51-1.125,5.08-2.042,7.705-2.757
	c4.452-1.208,9.052-1.815,13.754-1.815c28.918,0,52.444,23.519,52.444,52.432c0,28.917-23.525,52.442-52.444,52.442h-0.005
	c-7.566,0-14.875-1.579-21.703-4.694l0,0c-18.667-8.491-30.732-27.241-30.732-47.748h-7.724c0,23.523,13.846,45.028,35.253,54.779
	l1.601-3.513l-1.601,3.513c7.848,3.571,16.231,5.38,24.905,5.38h0.005c33.182,0,60.163-26.979,60.163-60.159
	C227.107,199.955,200.126,172.965,166.944,172.965z"/>
</svg>
