<?xml version="1.0" encoding="utf-8"?>
<!-- Generator: Adobe Illustrator 16.0.0, SVG Export Plug-In . SVG Version: 6.00 Build 0)  -->
<!DOCTYPE svg PUBLIC "-//W3C//DTD SVG 1.1//EN" "http://www.w3.org/Graphics/SVG/1.1/DTD/svg11.dtd">
<svg version="1.1" id="Layer_1" xmlns="http://www.w3.org/2000/svg" xmlns:xlink="http://www.w3.org/1999/xlink" x="0px" y="0px"
	 width="1024px" height="435px" viewBox="0 0 1024 435" enable-background="new 0 0 1024 435" xml:space="preserve">
<rect x="332.946" y="111.683" fill="#BCBCBC" width="4.734" height="198.849"/>
<path fill="none" d="M201.538,204.973c-0.02,0.014-0.039,0.021-0.049,0.024C201.499,204.993,201.529,204.987,201.538,204.973
	L201.538,204.973z"/>
<path fill="none" d="M204.668,205.918c0,0,1.506,2.16,2.106,2.16c0,0,3.356-0.861,3.464-2.121
	C210.238,205.958,207.247,207.044,204.668,205.918z"/>
<g>
	<path fill="#F7941D" d="M378.261,169.906v-9.897h42.471c2.649,0,4.688-0.675,6.117-2.026c1.428-1.35,2.143-3.143,2.143-5.377
		c0-2.441-0.715-4.272-2.143-5.494c-1.429-1.22-3.468-1.831-6.117-1.831h-26.028c-2.649,0-5.053-0.402-7.208-1.208
		c-2.156-0.805-3.974-1.921-5.455-3.351c-1.48-1.428-2.624-3.129-3.429-5.104c-0.806-1.974-1.208-4.13-1.208-6.468
		c0-2.286,0.376-4.403,1.13-6.351c0.752-1.948,1.871-3.624,3.351-5.026c1.48-1.403,3.312-2.506,5.494-3.312
		c2.182-0.805,4.676-1.208,7.481-1.208h40.679v9.897h-40.679c-2.287,0-4.052,0.611-5.299,1.831c-1.247,1.222-1.87,2.922-1.87,5.104
		s0.636,3.871,1.909,5.065c1.272,1.196,3,1.792,5.183,1.792h25.95c5.767,0,10.143,1.352,13.131,4.052
		c2.987,2.702,4.481,6.807,4.481,12.313c0,2.39-0.364,4.598-1.091,6.624c-0.729,2.026-1.819,3.78-3.273,5.26
		c-1.455,1.481-3.287,2.638-5.494,3.468c-2.209,0.832-4.792,1.247-7.754,1.247H378.261z"/>
	<path fill="#F7941D" d="M443.019,113.252h12.079l25.717,43.64l25.639-43.64h11.377l-32.652,54.238
		c-0.572,0.988-1.247,1.767-2.026,2.338c-0.779,0.571-1.689,0.857-2.728,0.857c-1.091,0-2.026-0.286-2.806-0.857
		c-0.779-0.571-1.455-1.35-2.026-2.338L443.019,113.252z"/>
	<path fill="#F7941D" d="M523.908,169.906v-56.654h9.897v46.757h38.107v9.897H523.908z"/>
</g>
<g>
	<g>
		<path fill="#0674ED" d="M488.244,263.123c-1.171,14.004-6.422,24.978-15.754,32.909c-9.573,7.702-22.177,11.554-37.811,11.554
			c-18.205,0-32.094-5.481-41.662-16.455c-9.573-10.503-14.354-26.021-14.354-46.563c0-21.006,4.901-36.76,14.704-47.263
			c10.033-10.968,24.507-16.455,43.413-16.455c15.404,0,27.658,3.851,36.761,11.553c8.632,7.473,13.533,17.976,14.704,31.509H473.19
			c-5.602,0-9.573-2.451-11.904-7.353c-1.635-3.03-3.621-5.716-5.952-8.052c-4.671-3.501-10.853-5.251-18.555-5.251
			c-10.738,0-19.026,3.501-24.857,10.503c-5.602,7.002-8.403,17.275-8.403,30.809c0,13.074,2.801,23.107,8.403,30.109
			c5.366,7.237,13.418,10.853,24.157,10.853c7.467,0,13.654-1.865,18.555-5.602c4.431-3.501,7.582-9.103,9.453-16.805H488.244z"/>
		<path fill="#0674ED" d="M555.702,300.934c-4.902,2.571-10.099,4.142-15.58,4.727c-5.486,0.58-10.328,0.876-14.529,0.876
			c-8.402,0-15.754-2.276-22.056-6.827c-6.302-4.552-9.453-12.079-9.453-22.582c0-9.803,2.855-16.805,8.578-21.006
			c5.716-4.201,13.008-7.002,21.881-8.402c1.165,0,2.565-0.175,4.201-0.525c1.63-0.35,3.501-0.64,5.602-0.875
			c10.268-1.4,15.404-4.431,15.404-9.103c0-3.501-1.811-5.776-5.427-6.827c-3.621-1.05-6.947-1.575-9.978-1.575
			c-3.271,0-6.188,0.471-8.753,1.4c-2.57,0.936-4.437,2.686-5.602,5.251h-23.457c0.93-7.231,4.201-13.184,9.803-17.854
			c6.302-5.366,15.284-8.053,26.958-8.053c13.069,0,22.872,2.221,29.409,6.652c6.767,4.671,10.152,11.203,10.152,19.605v31.859
			c0,9.338-1.695,16.63-5.076,21.881C564.394,294.808,560.368,298.604,555.702,300.934z M550.1,257.872
			c-3.271,1.635-7.822,3.15-13.653,4.551l-8.053,1.751c-4.201,1.17-7.237,2.686-9.103,4.551c-1.636,2.571-2.45,5.137-2.45,7.702
			c0,3.501,1.05,6.302,3.15,8.402c2.101,1.871,5.132,2.801,9.103,2.801c6.532,0,11.669-1.865,15.404-5.602
			c3.731-3.73,5.602-8.867,5.602-15.404V257.872z"/>
		<path fill="#0674ED" d="M579.046,304.785v-45.163c0-9.103,1.34-16.744,4.026-22.932c2.681-6.182,6.356-11.143,11.028-14.879
			c4.431-3.501,9.627-6.066,15.579-7.702c5.952-1.631,12.078-2.451,18.38-2.451c0.466,0,1.051,0,1.751,0s1.28,0,1.75,0v24.857
			h-8.052c-6.772,0-11.789,1.636-15.055,4.901c-3.271,3.271-4.901,8.402-4.901,15.404v47.964H579.046z"/>
		<path fill="#F7941D" d="M744.182,263.123c-1.17,14.004-6.422,24.978-15.754,32.909c-9.573,7.702-22.177,11.554-37.812,11.554
			c-18.205,0-32.094-5.481-41.661-16.455c-9.573-10.503-14.354-26.021-14.354-46.563c0-21.006,4.901-36.76,14.704-47.263
			c10.032-10.968,24.507-16.455,43.412-16.455c15.405,0,27.658,3.851,36.761,11.553c8.633,7.473,13.534,17.976,14.704,31.509
			h-15.054c-5.602,0-9.573-2.451-11.903-7.353c-1.636-3.03-3.622-5.716-5.952-8.052c-4.672-3.501-10.853-5.251-18.556-5.251
			c-10.737,0-19.025,3.501-24.856,10.503c-5.602,7.002-8.402,17.275-8.402,30.809c0,13.074,2.801,23.107,8.402,30.109
			c5.366,7.237,13.419,10.853,24.156,10.853c7.468,0,13.654-1.865,18.556-5.602c4.431-3.501,7.582-9.103,9.453-16.805H744.182z"/>
		<path fill="#F7941D" d="M811.64,300.934c-4.902,2.571-10.099,4.142-15.58,4.727c-5.486,0.58-10.328,0.876-14.529,0.876
			c-8.402,0-15.754-2.276-22.056-6.827c-6.302-4.552-9.453-12.079-9.453-22.582c0-9.803,2.855-16.805,8.577-21.006
			c5.717-4.201,13.009-7.002,21.882-8.402c1.165,0,2.565-0.175,4.201-0.525c1.63-0.35,3.501-0.64,5.602-0.875
			c10.268-1.4,15.404-4.431,15.404-9.103c0-3.501-1.811-5.776-5.427-6.827c-3.621-1.05-6.947-1.575-9.978-1.575
			c-3.271,0-6.188,0.471-8.753,1.4c-2.57,0.936-4.437,2.686-5.602,5.251h-23.456c0.93-7.231,4.201-13.184,9.803-17.854
			c6.302-5.366,15.283-8.053,26.957-8.053c13.069,0,22.872,2.221,29.409,6.652c6.767,4.671,10.152,11.203,10.152,19.605v31.859
			c0,9.338-1.695,16.63-5.076,21.881C820.331,294.808,816.306,298.604,811.64,300.934z M806.037,257.872
			c-3.271,1.635-7.822,3.15-13.653,4.551l-8.053,1.751c-4.201,1.17-7.237,2.686-9.103,4.551c-1.636,2.571-2.45,5.137-2.45,7.702
			c0,3.501,1.05,6.302,3.15,8.402c2.101,1.871,5.132,2.801,9.103,2.801c6.532,0,11.669-1.865,15.404-5.602
			c3.731-3.73,5.602-8.867,5.602-15.404V257.872z"/>
		<path fill="#F7941D" d="M834.983,304.785v-45.163c0-9.103,1.34-16.744,4.026-22.932c2.681-6.182,6.356-11.143,11.028-14.879
			c4.431-3.501,9.627-6.066,15.579-7.702c5.952-1.631,12.078-2.451,18.38-2.451c0.466,0,1.051,0,1.751,0s1.28,0,1.75,0v24.857
			h-8.052c-6.772,0-11.789,1.636-15.055,4.901c-3.271,3.271-4.901,8.402-4.901,15.404v47.964H834.983z"/>
		<path fill="#F7941D" d="M957.407,276.077h17.505c-2.571,9.803-7.473,17.275-14.704,22.406c-7.237,5.372-16.34,8.053-27.308,8.053
			c-13.304,0-23.692-4.316-31.159-12.954c-7.473-8.402-11.203-20.421-11.203-36.061c0-14.934,3.616-26.607,10.854-35.01
			c7.467-8.633,17.854-12.954,31.158-12.954c14.004,0,24.857,4.201,32.56,12.604c7.467,8.638,11.203,20.656,11.203,36.061
			c0,0.936,0,1.751,0,2.451s0,1.17,0,1.4c0,1.17-0.12,1.985-0.35,2.45h-60.567c0.229,7.237,1.979,12.604,5.251,16.104
			c3.031,3.736,7.582,5.602,13.654,5.602c3.966,0,7.352-0.814,10.152-2.45c0.7-0.229,1.341-0.641,1.926-1.226
			c0.58-0.58,1.226-1.226,1.926-1.926c0.229-0.7,1.105-1.63,2.626-2.801C952.445,276.662,954.606,276.077,957.407,276.077z
			 M915.396,248.77h35.71c-0.471-6.303-2.101-10.969-4.901-14.005c-3.036-3.266-7.353-4.901-12.954-4.901
			c-5.137,0-9.338,1.636-12.604,4.901C917.375,238.036,915.625,242.702,915.396,248.77z"/>
	</g>
</g>
<g>
	<g>
		<path fill="#6B6B6B" d="M619.269,325.761h4.696l-8.923,16.384v7.51h-4.384v-7.51l-8.924-16.384h4.696l6.263,11.605h0.313
			L619.269,325.761z"/>
		<path fill="#6B6B6B" d="M637.148,325.078c6.889,0,11.741,5.29,11.741,12.629s-4.853,12.63-11.741,12.63
			s-11.741-5.291-11.741-12.63S630.26,325.078,637.148,325.078z M637.148,329.174c-4.07,0-7.201,3.413-7.201,8.533
			s3.131,8.534,7.201,8.534s7.201-3.414,7.201-8.534S641.219,329.174,637.148,329.174z"/>
		<path fill="#6B6B6B" d="M653.37,340.097v-14.336h4.384v14.336c0,3.755,2.191,6.145,5.636,6.145s5.636-2.39,5.636-6.145v-14.336
			h4.384v14.336c0,5.974-3.914,10.24-10.02,10.24S653.37,346.07,653.37,340.097z"/>
		<path fill="#6B6B6B" d="M689.16,325.761c5.949,0,9.08,3.413,9.08,7.851c0,5.12-4.07,6.827-4.07,6.827v0.17l5.793,9.046h-5.167
			l-5.166-8.192h-6.105v8.192h-4.384v-23.894H689.16z M689.16,329.686h-5.636v7.852h5.636c2.975,0,4.54-2.049,4.54-3.926
			C693.7,331.393,692.135,329.686,689.16,329.686z"/>
		<path fill="#6B6B6B" d="M731.744,327.467l-1.878,3.243c0,0-2.255-1.536-5.167-1.536c-4.696,0-7.827,3.413-7.827,8.533
			s3.131,8.534,7.827,8.534c3.131,0,5.479-1.878,5.479-1.878l1.879,3.243c0,0-2.975,2.73-7.671,2.73
			c-7.202,0-12.055-5.291-12.055-12.63s4.853-12.629,12.055-12.629C728.927,325.078,731.744,327.467,731.744,327.467z"/>
		<path fill="#6B6B6B" d="M757.609,349.654h-4.697l-1.722-4.778h-10.803l-1.722,4.778h-4.696l9.08-23.894h5.479L757.609,349.654z
			 M741.953,340.779h7.672l-3.758-9.898h-0.156L741.953,340.779z"/>
		<path fill="#6B6B6B" d="M771.231,325.761c5.949,0,9.08,3.413,9.08,7.851c0,5.12-4.07,6.827-4.07,6.827v0.17l5.793,9.046h-5.167
			l-5.166-8.192h-6.105v8.192h-4.384v-23.894H771.231z M771.231,329.686h-5.636v7.852h5.636c2.975,0,4.54-2.049,4.54-3.926
			C775.771,331.393,774.206,329.686,771.231,329.686z"/>
		<path fill="#6B6B6B" d="M806.146,325.078c6.889,0,11.741,5.29,11.741,12.629s-4.853,12.63-11.741,12.63
			s-11.741-5.291-11.741-12.63S799.257,325.078,806.146,325.078z M806.146,329.174c-4.07,0-7.201,3.413-7.201,8.533
			s3.131,8.534,7.201,8.534s7.201-3.414,7.201-8.534S810.216,329.174,806.146,329.174z"/>
		<path fill="#6B6B6B" d="M822.366,340.097v-14.336h4.384v14.336c0,3.755,2.191,6.145,5.636,6.145s5.636-2.39,5.636-6.145v-14.336
			h4.384v14.336c0,5.974-3.914,10.24-10.02,10.24S822.366,346.07,822.366,340.097z"/>
		<path fill="#6B6B6B" d="M858.156,325.761c5.949,0,9.08,3.413,9.08,7.851c0,5.12-4.07,6.827-4.07,6.827v0.17l5.793,9.046h-5.167
			l-5.166-8.192h-6.105v8.192h-4.384v-23.894H858.156z M858.156,329.686h-5.636v7.852h5.636c2.975,0,4.54-2.049,4.54-3.926
			C862.696,331.393,861.131,329.686,858.156,329.686z"/>
		<path fill="#6B6B6B" d="M900.741,327.467l-1.878,3.243c0,0-2.255-1.536-5.167-1.536c-4.696,0-7.827,3.413-7.827,8.533
			s3.131,8.534,7.827,8.534c3.132,0,5.479-1.878,5.479-1.878l1.879,3.243c0,0-2.975,2.73-7.671,2.73
			c-7.202,0-12.055-5.291-12.055-12.63s4.853-12.629,12.055-12.629C897.924,325.078,900.741,327.467,900.741,327.467z"/>
		<path fill="#6B6B6B" d="M926.606,349.654h-4.697l-1.722-4.778h-10.803l-1.722,4.778h-4.696l9.08-23.894h5.479L926.606,349.654z
			 M910.951,340.779h7.671l-3.758-9.898h-0.156L910.951,340.779z"/>
		<path fill="#6B6B6B" d="M940.228,325.761c5.949,0,9.08,3.413,9.08,7.851c0,5.12-4.07,6.827-4.07,6.827v0.17l5.793,9.046h-5.167
			l-5.166-8.192h-6.105v8.192h-4.384v-23.894H940.228z M940.228,329.686h-5.636v7.852h5.636c2.975,0,4.54-2.049,4.54-3.926
			C944.768,331.393,943.202,329.686,940.228,329.686z"/>
		<path fill="#6B6B6B" d="M954.789,325.761h17.534v3.925h-13.15v6.145h9.08v3.926h-9.08v5.973h13.464v3.926h-17.848V325.761z"/>
	</g>
</g>
<g>
	<g>
		<g>
			<path fill="#0674ED" d="M161.561,337.345c-70.035,0-127.009-56.979-127.009-127.008c0-70.035,56.975-127.009,127.009-127.009
				c70.034,0,127.018,56.974,127.018,127.009C288.579,280.365,231.595,337.345,161.561,337.345z M161.561,92.599
				c-64.917,0-117.728,52.816-117.728,117.738c0,64.916,52.812,117.728,117.728,117.728s117.748-52.812,117.748-117.728
				C279.309,145.415,226.478,92.599,161.561,92.599z"/>
		</g>
	</g>
	<path fill="none" d="M175.172,193.508c-9.015-5.424-18.729-8.199-29.328-7.785c-1.949,0.079-2.717,0.738-2.667,2.598
		c0.049,1.487,0.079,2.982,0,4.463c-0.128,2.613,1.151,3.603,3.671,3.598c6.082-0.039,12.125,1.038,18.217,0.826
		c2.982,0,5.944,0.01,8.926,0c1.151-0.019,2.746,0.709,3.277-0.698C177.908,194.89,176.274,194.177,175.172,193.508z"/>
	<path fill="none" d="M213.417,193.754c-0.029,0.009-0.049,0.02-0.068,0.028C213.368,193.773,213.388,193.763,213.417,193.754
		L213.417,193.754z"/>
	<path fill="none" d="M216.695,194.757c0,0,1.584,2.264,2.224,2.264c0,0,3.523-0.906,3.632-2.234
		C222.551,194.787,219.411,195.928,216.695,194.757z"/>
	<path fill="#0674ED" d="M261.15,232.668c-2.785-0.276-6.239,1.19-8.218-0.856c-2.008-2.087,0.068-5.413-0.325-8.257
		c-0.955-6.865-0.886-13.739,0.846-20.57c0.798-3.119,1.712-6.741-0.58-9.409c-4.754-5.541-9.803-10.894-17.568-12.312
		c-2.627-0.482-5.255-1.054-7.096-3.46c-1.771-2.317-4.252-2.968-6.87-1.511c-2.874,1.62-2.775,4.764-3.316,7.5
		c-0.158,0.738,0.817,0.955,2.086-0.975c0.552,1.205,4.577,3.897,7.913,2.49c-1.033,3.523-1.023,5.512-4.35,6.131
		c-1.034,0.295-7.736,3.12-9.164-1.25c-0.294-0.781-1.259-1.978-2.116-1.505c0.207,0.084,0.414,0.237,0.561,0.458
		c0.345,0.506,0.295,1.137-0.098,1.412c-0.424,0.276-1.014,0.078-1.358-0.432c-0.088-0.134-0.147-0.276-0.187-0.414
		c-1.23,0.591,0.108,2.096,0.916,2.618c0.246,0.069,0.521,0.246,0.807,0.492c0.128,0.108,0.246,0.226,0.375,0.354l-0.521,0.413
		c0,0-0.129,0.371,0.462,0.197c0.02-0.009,0.039-0.02,0.068-0.028l0,0c-0.029,0.009-0.049,0.02-0.068,0.028
		c-0.01,0-0.03,0-0.049,0.005c-0.04,0.079-0.286,0.251-0.167,0.34c0.02,0.009,0.05,0.009,0.088,0.009l0,0
		c-0.029,0.138,0.227,0.079,0.326,0.079c-0.04,0.039-0.089,0.099-0.129,0.148c-0.197,0.216,0.049,0.31,0.049,0.31l0.118-0.03
		c-0.187,0.216,0.04,0.31,0.04,0.31l0.984-0.197c0,0,0-0.01,0.01-0.02c1.181,1.796,2.126,4.026,1.801,4.695
		c-0.513,1.043-1.664,0.866-2.559,0.768c-4.685-0.576-9.419-1.029-14.044-1.958c-2.568-0.512-2.795-2.101-0.708-3.996
		c4.773-4.399,9.448-8.926,14.163-13.405c3.533-3.351,7.44-6.344,10.255-10.363c0.856-1.221,2.333-2.889,1.053-4.311
		c-1.103-1.23-2.815-0.04-4.124,0.541c-3.622,1.599-6.908,3.793-9.842,6.396c-6.387,5.66-12.754,11.338-18.906,17.243
		c-2.893,2.766-5.167,3.253-8.769,0.945c-6.496-4.153-13.159-8.386-20.875-9.748c-20.009-3.538-39.83-3.824-58.943,4.693
		c-9.162,4.075-18.316,8.312-28.827,6.688c-1.496-0.23-2.726,0.364-2.736,2.175c-0.01,4.379-1.437,8.532-1.998,12.819
		c-0.837,6.48,2.588,13.39,7.844,15.697c3.09,1.358,6.348,2.356,9.517,3.534c2.706,1.008,3.739,0.2,3.405-2.752
		c-0.414-3.711,0.02-7.283,2.46-10.393c3.74-4.764,10.333-6.614,16.082-4.419c3.612,1.387,6.24,4.084,7.509,7.607h77.426
		c1.131-2.727,3.188-5.078,5.944-6.712c4.94-2.918,11.338-2.327,15.924,1.605c4.222,3.63,5.196,8.384,4.301,13.645
		c-0.266,1.584-0.394,2.622,1.801,2.465c7.057-0.521,12.519-5.107,13.936-11.868c1.319-6.26-1.663-11.348-7.873-13.386
		c-1.871-0.61-3.76-1.141-6.181-1.87c3.514-5.698,6.594-4.793,10.433-7.606c0.207-0.272,1.83-0.257,2.214-0.296
		c3.386-0.28,8.504,4.611,8.612,8.168c0.167,6.359,0.344,12.716,0.59,19.075c0.246,6.268-2.116,11.396-6.879,11.839
		c-7.106,0.669-14.33,0.235-21.8,0.196c-2.185,1.742-4.931,2.805-7.893,2.805c-3.002,0-5.787-1.092-7.981-2.879h-87.062
		c-2.224,1.89-5.088,3.037-8.188,3.037c-2.933,0-5.659-1.034-7.834-2.766c-11.239,0-21.947,0.029-32.636-0.029
		c-2.224-0.011-3.72,0.511-3.709,3.071c0.01,2.381,0.531,4.388,3.346,4.698c1.21,0.138,2.431,0.104,3.651,0.104
		c4.4,0,8.799,0,13.198,0c0.669-0.099,1.348-0.157,2.027-0.157h106.499c0.689,0,1.368,0.059,2.047,0.157c22.016,0,44.022,0,66.039,0
		c1.486,0,2.991,0.068,4.458-0.153c2.667-0.418,2.835-2.51,2.815-4.648C263.581,234.026,263.128,232.854,261.15,232.668z
		 M132.409,196.218c-2.027-0.03-4.054,0-6.082,0c-6.368,0.251-12.687-0.773-19.025-0.851c-1.063,0-2.362,0.099-2.726-1.23
		c-0.403-1.515,0.788-2.136,1.93-2.652c9.625-4.385,19.772-6.269,30.313-6.253c1.811,0,2.825,0.722,2.795,2.617
		c0,0.266,0.01,0.542,0.03,0.817C140.076,196.342,140.046,196.361,132.409,196.218z M177.268,196.509
		c-0.531,1.407-2.126,0.679-3.277,0.698c-2.982,0.01-5.944,0-8.926,0c-6.092,0.212-12.135-0.865-18.217-0.826
		c-2.52,0.005-3.799-0.985-3.671-3.598c0.079-1.481,0.049-2.976,0-4.463c-0.049-1.859,0.718-2.519,2.667-2.598
		c10.599-0.414,20.313,2.361,29.328,7.785C176.274,194.177,177.908,194.89,177.268,196.509z M218.919,197.021
		c-0.64,0-2.224-2.264-2.224-2.264c2.716,1.171,5.856,0.03,5.856,0.03C222.442,196.115,218.919,197.021,218.919,197.021z"/>
	<polygon fill-rule="evenodd" clip-rule="evenodd" fill="#FFFFFF" points="95.552,227.589 92.52,222.339 95.552,217.088 
		101.624,217.088 104.655,222.339 101.624,227.589 	"/>
	<polygon fill="#FFFFFF" points="208.594,218.043 206.115,222.339 208.594,226.625 213.546,226.625 216.025,222.339 
		213.546,218.043 	"/>
	<path fill="#F7941D" d="M202.217,222.187l4.606-7.372h9.202c-2.116-2.716-5.433-4.473-9.143-4.473
		c-5.719,0-10.482,4.167-11.397,9.63h-10.678h-3.513h-66.403c-0.925-5.463-5.678-9.63-11.396-9.63c-3.73,0-7.027,1.757-9.143,4.473
		h9.192l4.616,7.372l-4.616,7.371h-8.74c2.106,2.406,5.217,3.927,8.691,3.927c4.862,0,9.015-2.997,10.728-7.248h67.072h3.366h11.505
		c1.693,4.251,5.866,7.248,10.718,7.248c3.454,0,6.574-1.521,8.68-3.927h-8.739L202.217,222.187z"/>
	<polygon fill="#0674ED" points="208.594,218.043 206.115,222.339 208.594,226.625 213.546,226.625 216.025,222.339 
		213.546,218.043 	"/>
	<polygon fill="#0674ED" points="96.506,218.043 94.026,222.339 96.506,226.625 101.457,226.625 103.937,222.339 101.457,218.043 	
		"/>
</g>
<g>
	<path fill="#6B6B6B" d="M573.019,320.763h-0.306h-5.055H383.77h-5.059h-0.305h-5.053v4.167h5.053h0.305h5.059h182.324h5.054h0.306
		h5.059c0.346-1.396,1.161-2.785,1.564-4.167H573.019z"/>
	<rect x="373.353" y="333.502" fill="#6B6B6B" width="10.21" height="4.168"/>
	<rect x="392.833" y="333.502" fill="#6B6B6B" width="10.211" height="4.168"/>
	<rect x="412.316" y="333.502" fill="#6B6B6B" width="10.21" height="4.168"/>
	<rect x="431.797" y="333.502" fill="#6B6B6B" width="10.211" height="4.168"/>
	<rect x="451.28" y="333.502" fill="#6B6B6B" width="10.211" height="4.168"/>
	<rect x="470.761" y="333.502" fill="#6B6B6B" width="10.211" height="4.168"/>
	<rect x="490.244" y="333.502" fill="#6B6B6B" width="10.211" height="4.168"/>
	<rect x="509.725" y="333.502" fill="#6B6B6B" width="10.21" height="4.168"/>
	<rect x="529.207" y="333.502" fill="#6B6B6B" width="10.211" height="4.168"/>
	<rect x="548.688" y="333.502" fill="#6B6B6B" width="10.212" height="4.168"/>
	<polygon fill="#6B6B6B" points="567.369,346.341 566.75,346.341 562.315,346.341 382.834,346.341 378.406,346.341 377.786,346.341 
		373.353,346.341 373.353,350.514 377.786,350.514 378.406,350.514 382.834,350.514 560.189,350.514 564.624,350.514 
		565.243,350.514 569.672,350.514 571.797,346.341 	"/>
</g>
</svg>
