<?xml version="1.0" encoding="utf-8"?>
<!-- Generator: Adobe Illustrator 16.0.0, SVG Export Plug-In . SVG Version: 6.00 Build 0)  -->
<!DOCTYPE svg PUBLIC "-//W3C//DTD SVG 1.1//EN" "http://www.w3.org/Graphics/SVG/1.1/DTD/svg11.dtd">
<svg version="1.1" id="Layer_1" xmlns="http://www.w3.org/2000/svg" xmlns:xlink="http://www.w3.org/1999/xlink" x="0px" y="0px"
	 width="1024px" height="435px" viewBox="0 0 1024 435" enable-background="new 0 0 1024 435" xml:space="preserve">
<g>
	<path fill="#6B6B6B" d="M313.95,387.084l-2.339,4.659h-9.785l-11.899,23.701h-5.707l11.899-23.701h-9.785l2.339-4.659H313.95z"/>
	<path fill="#6B6B6B" d="M345.1,387.084l-14.238,28.36h-5.708l5.898-11.749h-14.678l-5.898,11.749h-5.708l14.238-28.36h5.708
		l-6,11.951h14.678l6-11.951H345.1z"/>
	<path fill="#6B6B6B" d="M352.723,387.084h22.832l-2.339,4.659h-17.124l-3.661,7.292h11.823l-2.339,4.66h-11.823l-3.559,7.089
		h17.531l-2.339,4.66h-23.239L352.723,387.084z"/>
	<path fill="#6B6B6B" d="M413.536,389.717l-4.175,3.85c0,0-2.042-2.431-6.323-2.431c-3.873,0-6.623,1.822-7.335,3.241
		c-2.848,5.672,14.682,2.835,9.698,12.762c-2.44,4.861-8.857,9.115-17.012,9.115c-6.605,0-8.873-3.849-8.873-3.849l4.379-3.849
		c0,0,1.777,3.039,6.424,3.039c4.689,0,8.05-2.229,9.169-4.457c2.542-5.064-14.885-2.432-9.698-12.762
		c2.034-4.053,8.146-8.104,15.281-8.104C411.188,386.273,413.536,389.717,413.536,389.717z"/>
	<path fill="#6B6B6B" d="M423.283,411.393l0.492-15.192h-0.204l-11.903,19.244h-5.912l17.704-28.36h6.319l-0.693,17.623h0.204
		l17.002-17.623h6.319l-10.772,28.36h-5.911l7.418-19.244h-0.204l-14.762,15.192H423.283z"/>
	<path fill="#6B6B6B" d="M476.208,415.444h-6.115l0.604-5.672h-14.065l-5.091,5.672h-6.115l26.061-28.36h7.135L476.208,415.444z
		 M461.111,404.91h9.989l1.006-11.749h-0.204L461.111,404.91z"/>
	<path fill="#6B6B6B" d="M508.182,387.084c7.746,0,9.789,4.052,7.145,9.318c-3.05,6.077-9.367,8.103-9.367,8.103l-0.102,0.202
		l2.152,10.737h-6.727l-1.846-9.724h-7.95l-4.881,9.724h-5.708l14.238-28.36H508.182z M505.843,391.743h-7.339l-4.678,9.318h7.339
		c3.873,0,7.131-2.431,8.25-4.659C510.737,393.769,509.716,391.743,505.843,391.743z"/>
	<path fill="#6B6B6B" d="M549.849,387.084l-2.339,4.659h-9.785l-11.898,23.701h-5.707l11.898-23.701h-9.785l2.339-4.659H549.849z"/>
	<path fill="#6B6B6B" d="M582.922,394.377l-16.488,21.067h-7.543l6.288-28.36h6.115l-4.767,21.27h0.203l16.51-21.27h6.89
		l-4.847,21.27h0.203l16.59-21.27h6.116l-22.188,28.36h-7.543l4.665-21.067H582.922z"/>
	<path fill="#6B6B6B" d="M626.041,415.444h-6.115l0.604-5.672h-14.064l-5.092,5.672h-6.115l26.062-28.36h7.135L626.041,415.444z
		 M610.943,404.91h9.989l1.006-11.749h-0.204L610.943,404.91z"/>
	<path fill="#6B6B6B" d="M662.05,387.084h6.115l-21.382,19.446l-4.475,8.914H636.6l4.475-8.914l-1.856-19.446h6.115l1.239,13.774
		h0.408L662.05,387.084z"/>
	<path fill="#6B6B6B" d="M708.038,387.084l-2.339,4.659h-9.785l-11.898,23.701h-5.707l11.898-23.701h-9.785l2.339-4.659H708.038z"/>
	<path fill="#6B6B6B" d="M726.345,386.273c8.97,0,12.136,6.28,7.763,14.99c-4.373,8.711-13.845,14.99-22.814,14.99
		s-12.137-6.279-7.764-14.99C707.902,392.554,717.375,386.273,726.345,386.273z M723.903,391.136c-5.3,0-11.411,4.051-14.462,10.128
		c-3.052,6.078-1.008,10.129,4.292,10.129s11.412-4.051,14.464-10.129C731.248,395.187,729.203,391.136,723.903,391.136z"/>
	<path fill="#6B6B6B" d="M773.108,387.084c7.746,0,9.789,4.052,7.146,9.318c-3.051,6.077-9.368,8.103-9.368,8.103l-0.102,0.202
		l2.153,10.737h-6.729l-1.846-9.724h-7.95l-4.882,9.724h-5.707l14.237-28.36H773.108z M770.77,391.743h-7.339l-4.679,9.318h7.34
		c3.873,0,7.132-2.431,8.25-4.659C775.664,393.769,774.643,391.743,770.77,391.743z"/>
	<path fill="#6B6B6B" d="M792.067,387.084h22.832l-2.339,4.659h-17.124l-3.661,7.292h11.823l-2.339,4.66h-11.824l-3.559,7.089
		h17.531l-2.34,4.66H777.83L792.067,387.084z"/>
	<path fill="#6B6B6B" d="M834.338,415.444h-6.115l0.604-5.672h-14.064l-5.092,5.672h-6.115l26.062-28.36h7.135L834.338,415.444z
		 M819.24,404.91h9.989l1.006-11.749h-0.204L819.24,404.91z"/>
	<path fill="#6B6B6B" d="M875.08,389.109l-4.379,3.849c0,0-2.021-1.822-5.813-1.822c-6.115,0-12.227,4.051-15.277,10.128
		c-3.052,6.078-1.008,10.129,5.107,10.129c4.077,0,8.254-2.228,8.254-2.228l0.514,3.849c0,0-5.5,3.24-11.616,3.24
		c-9.377,0-12.544-6.279-8.171-14.99c4.373-8.71,13.846-14.99,23.223-14.99C872.834,386.273,875.08,389.109,875.08,389.109z"/>
	<path fill="#6B6B6B" d="M908.02,387.084l-14.238,28.36h-5.707l5.898-11.749h-14.678l-5.898,11.749h-5.709l14.238-28.36h5.708
		l-6,11.951h14.678l6-11.951H908.02z"/>
	<path fill="#6B6B6B" d="M905.885,409.772c1.834,0,2.549,1.418,1.735,3.038s-2.952,3.038-4.786,3.038
		c-1.836,0-2.551-1.418-1.737-3.038S904.049,409.772,905.885,409.772z"/>
	<path fill="#6B6B6B" d="M916.77,409.772c1.834,0,2.549,1.418,1.735,3.038s-2.952,3.038-4.786,3.038
		c-1.836,0-2.551-1.418-1.737-3.038S914.934,409.772,916.77,409.772z"/>
</g>
<path fill="#0674ED" d="M919.692,271.498c3.04,3.613-16.263-76.532-172.616-99.209c-137.813-14.062-270.699-103.482-387.415-78.17
	c-116.721,25.311-138.521,41.4-138.521,41.4S65.75,152.387,53.797,163.636C41.84,174.891,124.11,290.194,124.11,290.194
	s-30.227-73.736-26.722-98.041c3.521-24.294,101.253-26.409,156.796-14.451c55.548,11.947,183.519,45.695,245.395,43.596
	c61.87-2.12,101.248-24.607,101.248-24.607s-85.781,16.159-161.718,2.109c-75.943-14.067-159.609-47.82-149.766-58.366
	c9.837-10.546,94.217-30.243,142.032-25.316c47.819,4.927,214.454,63.282,291.796,70.308
	C808.958,192.624,872.257,215.241,919.692,271.498z"/>
<g>
	<path fill="#E89400" d="M135.257,53.772c0,0,95.467,24.97,164.368,42.791c-16.642,4.218-30.259,8.037-41.362,11.443l-81.713-19.794
		C158.209,83.724,142.964,71.014,135.257,53.772L135.257,53.772z"/>
	<path fill="#E89400" d="M350.279,84.746c-10.427,2.255-20.054,4.439-29.016,6.549L161.098,52.167
		c-18.323-4.495-33.542-17.193-41.232-34.424l-0.027-0.016c0,0,211.419,54.445,248.315,64.012
		C362.144,82.474,356.195,83.453,350.279,84.746z"/>
	<path fill="#E89400" d="M150.676,89.84c0,0,27.182,7.361,90.507,23.709c-23.267,8.047-29.416,12.585-29.416,12.585
		s-2.883,0.319-7.864,0.887l-11.941-2.758C173.612,119.786,158.367,107.076,150.676,89.84L150.676,89.84z"/>
</g>
<g>
	<path fill="#0674ED" d="M116.788,294.419l8.951-22.293H237.89l-8.951,22.293h-42.228l-30.567,75.672H126.75l30.573-75.672H116.788z
		"/>
	<polygon fill="#0674ED" points="224.92,317.003 223.563,317.003 197.766,317.003 188.647,339.302 223.563,339.302 224.92,339.302 
		250.831,339.302 259.955,317.003 	"/>
	<path fill="#E89400" d="M288.392,370.091h-29.389l39.523-97.965h77.863c13.288,0,21.341,2.423,24.153,7.264
		c2.931,4.959,2.536,11.936-1.179,20.945l-3.213,7.767c-3.715,9.237-8.951,16.215-15.706,20.946
		c-6.869,4.841-16.836,7.264-29.897,7.264h-48.475L288.392,370.091z M345.822,314.012c7.88,0,13.396-1.232,16.549-3.714
		c3.267-2.586,5.235-4.614,5.912-6.079c0.449-1.461,0.113-3.489-1.011-6.079c-1.125-2.477-5.63-3.721-13.515-3.721h-34.792
		l-7.939,19.593H345.822z"/>
	<path fill="#E89400" d="M413.717,370.091h-29.389l39.524-97.965h29.388L413.717,370.091z"/>
	<path fill="#E89400" d="M535.668,370.091h-77.527c-6.527,0-11.795-0.59-15.792-1.774c-3.998-1.184-6.869-2.926-8.616-5.234
		c-1.747-2.31-2.504-5.236-2.277-8.783c0.222-3.548,1.293-7.685,3.208-12.418l28.209-69.755h29.724l-24.153,60.128
		c-2.136,5.068-2.503,8.93-1.098,11.575c1.406,2.644,5.663,3.97,12.753,3.97h64.521l-3.04,7.766L535.668,370.091z"/>
	<path fill="#E89400" d="M668.934,341.881c-3.494,9.012-8.729,15.993-15.711,20.947c-6.642,4.846-16.609,7.263-29.897,7.263h-43.238
		c-11.483,0-19.255-2.169-23.311-6.501c-4.05-4.337-4.11-11.573-0.168-21.709l16.89-41.546c3.83-9.459,9.406-16.474,16.724-21.027
		c7.317-4.564,17.116-6.954,29.388-7.182h43.24c13.288,0,21.34,2.423,24.152,7.264c2.932,4.959,2.536,11.936-1.179,20.945
		L668.934,341.881z M643.26,332.428l9.119-22.466c2.028-5.408,2.477-9.345,1.352-11.822c-1.124-2.477-5.63-3.721-13.516-3.721
		h-16.55c-7.095,0-12.417,1.33-15.959,3.975c-3.548,2.645-6.339,6.501-8.36,11.568l-8.957,22.292
		c-2.136,5.068-2.504,8.93-1.098,11.575c1.406,2.644,5.662,3.97,12.753,3.97h16.555c7.771,0,13.229-1.239,16.382-3.722
		C638.36,341.378,641.119,337.49,643.26,332.428z"/>
	<path fill="#E89400" d="M697.981,294.419l8.95-22.293h112.15l-8.95,22.293h-42.228l-30.568,75.672h-29.394l30.574-75.672H697.981z"
		/>
	<path fill="#E89400" d="M914.182,352.017c-2.705,4.282-6.814,8.394-12.331,12.33c-5.521,3.83-11.822,5.744-18.918,5.744h-93.574
		l8.951-22.292h77.526c2.137,0,3.381-0.51,3.716-1.526c0.228-0.442,0.282-0.73,0.168-0.843c0.228-1.688,0-2.645-0.671-2.873
		l-56.419-24.487c-7.09-2.813-8.837-8.557-5.234-17.231c0.79-2.022,1.492-3.716,2.114-5.067c0.616-1.352,1.207-2.417,1.774-3.207
		c0.897-0.902,1.827-1.969,2.785-3.207c0.957-1.239,1.882-2.59,2.784-4.057c2.028-3.147,6.589-6.133,13.684-8.95
		c6.981-2.818,14.693-4.224,23.142-4.224h82.764l-9.292,22.975h-82.763c-1.801,0-3.213,1.011-4.224,3.039
		c-0.336,1.352-0.336,2.022,0,2.022l62.325,27.701c4.056,1.807,5.856,5.295,5.408,10.476c-0.114,3.829-0.904,7.431-2.369,10.806
		l-0.676,1.52C914.744,351.118,914.517,351.567,914.182,352.017z"/>
</g>
<g>
	<path fill="#F7941D" d="M127.871,262.623v-5.563h23.874c1.489,0,2.635-0.379,3.439-1.139c0.803-0.759,1.205-1.767,1.205-3.022
		c0-1.372-0.402-2.401-1.205-3.088c-0.804-0.687-1.95-1.03-3.439-1.03h-14.631c-1.489,0-2.84-0.226-4.052-0.679
		c-1.212-0.452-2.234-1.08-3.066-1.884c-0.833-0.803-1.475-1.759-1.927-2.869c-0.453-1.109-0.679-2.321-0.679-3.636
		c0-1.284,0.211-2.475,0.635-3.57c0.423-1.095,1.051-2.036,1.884-2.825c0.832-0.788,1.861-1.408,3.088-1.861
		c1.227-0.452,2.628-0.679,4.206-0.679h22.866v5.563h-22.866c-1.286,0-2.278,0.344-2.979,1.029
		c-0.701,0.687-1.051,1.643-1.051,2.869s0.357,2.177,1.073,2.848c0.715,0.672,1.687,1.008,2.913,1.008h14.587
		c3.242,0,5.702,0.76,7.381,2.277c1.679,1.52,2.519,3.826,2.519,6.922c0,1.343-0.205,2.584-0.613,3.723
		c-0.409,1.14-1.022,2.125-1.84,2.957c-0.818,0.832-1.847,1.482-3.088,1.949c-1.242,0.468-2.694,0.701-4.359,0.701H127.871z"/>
	<path fill="#F7941D" d="M164.272,230.777h6.79l14.456,24.53l14.412-24.53h6.396l-18.354,30.487
		c-0.321,0.556-0.701,0.993-1.139,1.314s-0.949,0.482-1.533,0.482c-0.613,0-1.139-0.161-1.577-0.482s-0.818-0.759-1.139-1.314
		L164.272,230.777z"/>
	<path fill="#F7941D" d="M209.742,262.623v-31.846h5.563v26.282h21.421v5.563H209.742z"/>
</g>
<g>
	<polygon fill="#6B6B6B" points="236.586,387.803 125.744,387.803 125.744,391.621 234.628,391.621 	"/>
	<polygon fill="#6B6B6B" points="256.662,387.803 145.819,387.803 145.819,391.621 254.704,391.621 	"/>
	<rect x="125.744" y="399.468" fill="#6B6B6B" width="9.35" height="3.818"/>
	<rect x="143.586" y="399.468" fill="#6B6B6B" width="9.351" height="3.818"/>
	<rect x="161.428" y="399.468" fill="#6B6B6B" width="9.351" height="3.818"/>
	<rect x="179.27" y="399.468" fill="#6B6B6B" width="9.351" height="3.818"/>
	<rect x="197.111" y="399.468" fill="#6B6B6B" width="9.351" height="3.818"/>
	<rect x="214.953" y="399.468" fill="#6B6B6B" width="9.351" height="3.818"/>
	<rect x="233.217" y="399.468" fill="#6B6B6B" width="9.351" height="3.818"/>
	<path fill="#6B6B6B" d="M230.448,411.226H125.744v3.824h102.708C228.479,414.839,230.448,411.226,230.448,411.226z"/>
	<path fill="#6B6B6B" d="M249.463,411.226H144.759v3.824h102.708C247.495,414.839,249.463,411.226,249.463,411.226z"/>
</g>
</svg>
