<?xml version="1.0" encoding="utf-8"?>
<!-- Generator: Adobe Illustrator 24.0.3, SVG Export Plug-In . SVG Version: 6.00 Build 0)  -->
<svg version="1.1" id="Layer_1" xmlns="http://www.w3.org/2000/svg" xmlns:xlink="http://www.w3.org/1999/xlink" x="0px" y="0px"
	 viewBox="0 0 458.5 248.3" style="enable-background:new 0 0 458.5 248.3;" xml:space="preserve">
<style type="text/css">
	.st0{fill:url(#SVGID_1_);}
	.st1{fill:url(#SVGID_2_);}
</style>
<title>Asset 5</title>
<g id="Layer_2_1_">
	<g id="OBJECTS">
		
			<linearGradient id="SVGID_1_" gradientUnits="userSpaceOnUse" x1="-3.850923e-05" y1="125.8712" x2="458.46" y2="125.8712" gradientTransform="matrix(-1 0 0 -1 458.46 250)">
			<stop  offset="0" style="stop-color:#AEFFFF"/>
			<stop  offset="0.12" style="stop-color:#A6FAFF"/>
			<stop  offset="0.3" style="stop-color:#90ECFF"/>
			<stop  offset="0.52" style="stop-color:#6CD6FF"/>
			<stop  offset="0.77" style="stop-color:#3AB7FF"/>
			<stop  offset="1" style="stop-color:#0898FF"/>
		</linearGradient>
		<path class="st0" d="M0,248.3h458.5c-22.9-44.5-78.6-69.3-127.9-74.8c-33.8-3.2-66.8-4.8-101.4,2.4c-25.3,5.3-54.4,2.3-74.8-14.9
			c-27.1-22.9-30.5-64.8-42.1-96.2c-6.4-17.1-15.5-34-29.1-46.5C72.5,8.3,58.9,3.8,44.7,1.8C40.1,1.1,0-1.7,0,1.6L0,248.3z"/>
		
			<linearGradient id="SVGID_2_" gradientUnits="userSpaceOnUse" x1="87.31" y1="102.45" x2="458.46" y2="102.45" gradientTransform="matrix(-1 0 0 -1 458.46 250)">
			<stop  offset="0" style="stop-color:#0898FF"/>
			<stop  offset="1" style="stop-color:#127AFF"/>
		</linearGradient>
		<path class="st1" d="M184.2,220.9c-25.3,5.3-54.4,2.2-74.8-14.9c-27.1-22.9-30.5-64.8-42.1-96.2c-6.4-17.1-15.6-34-29.1-46.5
			C27.6,53.5,14,48.8,0,46.8l0,201.4h371.1c-25.4-16.7-56.6-26.6-85.6-29.8C251.8,215.3,218.8,213.7,184.2,220.9z"/>
	</g>
</g>
</svg>
