<?xml version="1.0" encoding="utf-8"?>
<!-- Generator: Adobe Illustrator 24.0.3, SVG Export Plug-In . SVG Version: 6.00 Build 0)  -->
<svg version="1.1" id="Layer_1" xmlns="http://www.w3.org/2000/svg" xmlns:xlink="http://www.w3.org/1999/xlink" x="0px" y="0px"
	 viewBox="0 0 339.3 142" style="enable-background:new 0 0 339.3 142;" xml:space="preserve">
<style type="text/css">
	.st0{fill:url(#SVGID_1_);}
	.st1{fill:url(#SVGID_2_);}
</style>
<title>Asset 6</title>
<g id="Layer_2_1_">
	<g id="OBJECTS">
		
			<linearGradient id="SVGID_1_" gradientUnits="userSpaceOnUse" x1="-3.710265e-07" y1="73" x2="339.33" y2="73" gradientTransform="matrix(-1 0 0 -1 339.33 144)">
			<stop  offset="0" style="stop-color:#AEFFFF"/>
			<stop  offset="0.12" style="stop-color:#A6FAFF"/>
			<stop  offset="0.3" style="stop-color:#90ECFF"/>
			<stop  offset="0.52" style="stop-color:#6CD6FF"/>
			<stop  offset="0.77" style="stop-color:#3AB7FF"/>
			<stop  offset="1" style="stop-color:#0898FF"/>
		</linearGradient>
		<path class="st0" d="M279.8,127.4c17.7,7.8,39,14.1,59.5,14.6V0L0,0c1.2,18.2,8.5,36.5,29.6,49C65,69.7,114.1,64.8,157.5,61.5
			c20.9-1.1,41.8-3.8,63.6-1.6c12.9,1.6,21.7,10.3,24.1,19.6C250.9,98,256.5,117.6,279.8,127.4z"/>
		
			<linearGradient id="SVGID_2_" gradientUnits="userSpaceOnUse" x1="-3.710265e-07" y1="98.42" x2="217.84" y2="98.42" gradientTransform="matrix(-1 0 0 -1 339.33 144)">
			<stop  offset="0" style="stop-color:#AEFFFF"/>
			<stop  offset="0.12" style="stop-color:#A6FAFF"/>
			<stop  offset="0.3" style="stop-color:#90ECFF"/>
			<stop  offset="0.52" style="stop-color:#6CD6FF"/>
			<stop  offset="0.77" style="stop-color:#3AB7FF"/>
			<stop  offset="1" style="stop-color:#0898FF"/>
		</linearGradient>
		<path class="st1" d="M301.1,81.8c11.4,5,25,9,38.2,9.3V0L121.5,0c0.8,11.7,5.4,23.5,19,31.5c22.7,13.2,54.2,10.1,82.1,8
			c13.4-0.7,26.9-2.4,40.8-1c8.3,1,13.9,6.6,15.5,12.5C282.5,62.9,286.1,75.5,301.1,81.8z"/>
	</g>
</g>
</svg>
