<svg xmlns="http://www.w3.org/2000/svg" viewBox="0 0 311.04 349.65"><title>Asset 4</title><g id="Layer_2" data-name="Layer 2"><g id="OBJECTS"><path d="M147.19,211.93l7.61-10.4-6.69-6.68-10.4,7.6a42.55,42.55,0,0,0-8-4.59l1.39-12.81L122,182.61,116.8,194.4a42.69,42.69,0,0,0-9.18,0l-5.2-11.79-9.13,2.44,1.38,12.81a42.79,42.79,0,0,0-8,4.59l-10.4-7.6-6.69,6.68,7.61,10.4a42.64,42.64,0,0,0-4.59,8L59.84,218.5l-2.45,9.13,11.79,5.21a44,44,0,0,0,0,9.18l-11.79,5.21,2.45,9.13L72.65,255a42.64,42.64,0,0,0,4.59,8l-7.61,10.4L76.32,280l10.39-7.6a43.2,43.2,0,0,0,8,4.59l-1.38,12.81,9.13,2.45,5.2-11.8a42.69,42.69,0,0,0,9.18,0l5.21,11.8,9.13-2.45L129.76,277a42.79,42.79,0,0,0,8-4.59l10.4,7.6,6.69-6.68-7.61-10.4a42.64,42.64,0,0,0,4.59-8l12.81,1.39,2.45-9.13L155.25,242a44,44,0,0,0,0-9.18L167,227.63l-2.45-9.13-12.81,1.39A43.2,43.2,0,0,0,147.19,211.93Z" style="fill:#cff0ff;opacity:0.8"/><path d="M131.22,218.43a26.87,26.87,0,1,1-38,0A26.88,26.88,0,0,1,131.22,218.43Z" style="fill:#cff0ff;opacity:0.8"/><path d="M183.8,185.24,199.37,164l-13.68-13.68L164.4,165.84a88.23,88.23,0,0,0-16.28-9.4L151,130.22l-18.7-5-10.65,24.14a88.08,88.08,0,0,0-18.79,0L92.16,125.22l-18.69,5,2.84,26.22A88,88,0,0,0,60,165.84L38.74,150.28,25.06,164l15.56,21.28a88,88,0,0,0-9.39,16.29L5,198.69,0,217.38,24.14,228a89.41,89.41,0,0,0,0,18.79L0,257.48l5,18.69,26.22-2.84a87.69,87.69,0,0,0,9.39,16.29L25.06,310.9l13.68,13.68L60,309a88,88,0,0,0,16.29,9.39l-2.84,26.23,18.69,5,10.66-24.15a88.08,88.08,0,0,0,18.79,0l10.65,24.15,18.7-5-2.84-26.22a88.64,88.64,0,0,0,16.29-9.4l21.28,15.56,13.68-13.68L183.8,289.62a87.19,87.19,0,0,0,9.4-16.29l26.22,2.84,5-18.69-24.14-10.66a89.41,89.41,0,0,0,0-18.79l24.14-10.65-5-18.69-26.22,2.84A87.19,87.19,0,0,0,183.8,185.24ZM161,286.16a68.92,68.92,0,1,1,0-97.46A68.91,68.91,0,0,1,161,286.16Z" style="fill:#cff0ff;opacity:0.8"/><path d="M267.22,90.31l4.31-5.9-3.79-3.79-5.9,4.32a24.33,24.33,0,0,0-4.51-2.61l.78-7.27-5.18-1.39-3,6.7a23.88,23.88,0,0,0-5.21,0l-3-6.7-5.18,1.39.79,7.27a24,24,0,0,0-4.51,2.61L227,80.62l-3.79,3.79,4.32,5.9a24.41,24.41,0,0,0-2.61,4.52L217.65,94l-1.39,5.18,6.7,3a23.88,23.88,0,0,0,0,5.21l-6.7,3,1.39,5.18,7.27-.79a24.09,24.09,0,0,0,2.61,4.52l-4.32,5.9,3.79,3.79,5.9-4.31a24.35,24.35,0,0,0,4.52,2.6l-.79,7.27,5.18,1.39,3-6.69a25.2,25.2,0,0,0,5.21,0l3,6.69,5.18-1.39-.78-7.27a24.28,24.28,0,0,0,4.51-2.6l5.9,4.31,3.79-3.79-4.31-5.9a24,24,0,0,0,2.6-4.52l7.27.79,1.39-5.18-6.69-3a25.2,25.2,0,0,0,0-5.21l6.69-3L277.09,94l-7.27.79A24.35,24.35,0,0,0,267.22,90.31Z" style="fill:#cff0ff;opacity:0.8"/><path d="M258.15,94a15.25,15.25,0,1,1-21.56,0A15.23,15.23,0,0,1,258.15,94Z" style="fill:#cff0ff;opacity:0.8"/><path d="M288,75.17l8.83-12.08-7.76-7.76L277,64.16a50.7,50.7,0,0,0-9.25-5.33L269.35,44l-10.6-2.84-6.05,13.7a50,50,0,0,0-10.66,0l-6-13.7L225.39,44,227,58.83a50.29,50.29,0,0,0-9.24,5.33l-12.08-8.83-7.76,7.76,8.83,12.08a50.29,50.29,0,0,0-5.33,9.24L186.55,82.8,183.7,93.41l13.7,6a50.65,50.65,0,0,0,0,10.66l-13.7,6,2.84,10.6,14.88-1.61a50.29,50.29,0,0,0,5.33,9.24l-8.83,12.08,7.76,7.76,12.08-8.83a49.17,49.17,0,0,0,9.24,5.33l-1.61,14.88L236,168.45l6-13.7a50,50,0,0,0,10.66,0l6.05,13.7,10.6-2.84-1.61-14.88A49.57,49.57,0,0,0,277,145.4l12.07,8.83,7.76-7.76L288,134.4a49.57,49.57,0,0,0,5.33-9.25l14.88,1.61,2.84-10.6-13.7-6a50.65,50.65,0,0,0,0-10.66l13.69-6L308.2,82.8l-14.88,1.61A49.17,49.17,0,0,0,288,75.17Zm-13,57.26a39.1,39.1,0,1,1,0-55.3A39.1,39.1,0,0,1,275,132.43Z" style="fill:#cff0ff;opacity:0.8"/><path d="M134.92,43.34l3.8-5.2-3.34-3.34-5.19,3.8a22.08,22.08,0,0,0-4-2.3l.69-6.4-4.56-1.22-2.61,5.89a21.91,21.91,0,0,0-4.58,0l-2.61-5.89L108,29.9l.7,6.41a21.13,21.13,0,0,0-4,2.29l-5.2-3.8-3.34,3.34,3.8,5.2a21.06,21.06,0,0,0-2.29,4l-6.4-.69L90,51.18l5.9,2.61a21.25,21.25,0,0,0,0,4.58L90,61l1.22,4.57,6.41-.69a21.06,21.06,0,0,0,2.29,4L96.16,74l3.34,3.34,5.2-3.8a21.13,21.13,0,0,0,4,2.29l-.7,6.41,4.56,1.22,2.61-5.89a21.25,21.25,0,0,0,4.58,0l2.61,5.9,4.56-1.22-.69-6.41a21.45,21.45,0,0,0,4-2.29l5.19,3.8L138.72,74l-3.8-5.2a21.67,21.67,0,0,0,2.3-4l6.4.69L144.84,61,139,58.37a21.91,21.91,0,0,0,0-4.58l5.89-2.61-1.22-4.56-6.4.69A21.67,21.67,0,0,0,134.92,43.34Z" style="fill:#cff0ff;opacity:0.8"/><path d="M126.94,46.58a13.43,13.43,0,1,1-19,0A13.45,13.45,0,0,1,126.94,46.58Z" style="fill:#cff0ff;opacity:0.8"/><path d="M153.22,30,161,19.36l-6.84-6.84L143.53,20.3a43.74,43.74,0,0,0-8.15-4.69L136.8,2.5,127.46,0l-5.32,12.06a44.66,44.66,0,0,0-9.39,0L107.42,0,98.08,2.5,99.5,15.61a43.35,43.35,0,0,0-8.14,4.69L80.72,12.52l-6.83,6.84L81.66,30A43.35,43.35,0,0,0,77,38.14l-13.1-1.42-2.51,9.34,12.07,5.32a44.66,44.66,0,0,0,0,9.39L61.36,66.1l2.51,9.34L77,74a43.9,43.9,0,0,0,4.69,8.14L73.89,92.8l6.83,6.83,10.64-7.77a43.35,43.35,0,0,0,8.14,4.69l-1.42,13.1,9.34,2.51,5.33-12.07a43.9,43.9,0,0,0,9.38,0l5.33,12.07,9.34-2.51-1.42-13.1a43.35,43.35,0,0,0,8.14-4.69l10.64,7.77L161,92.8l-7.78-10.64A43.35,43.35,0,0,0,157.91,74l15.61-7.92h0l-12.06-5.33a44.66,44.66,0,0,0,0-9.39l12.06-5.32L171,36.72l-13.11,1.42A43.35,43.35,0,0,0,153.22,30ZM141.8,80.43a34.44,34.44,0,1,1,0-48.71A34.44,34.44,0,0,1,141.8,80.43Z" style="fill:#cff0ff;opacity:0.8"/></g></g></svg>