<svg xmlns="http://www.w3.org/2000/svg" viewBox="0 0 327.22 331.37"><title>Asset 2</title><g style="isolation:isolate"><g id="Layer_2" data-name="Layer 2"><g id="OBJECTS"><g style="opacity:0.05"><rect x="204.79" y="26.51" width="44.23" height="21.66" rx="2.31" style="fill:#7d5299;opacity:0.5"/><rect x="158.84" y="26.51" width="44.23" height="21.66" rx="2.31" style="fill:#7d5299"/><rect x="112.89" y="26.51" width="44.23" height="21.66" rx="2.31" style="fill:#7d5299;opacity:0.5"/><rect x="138.46" y="2.95" width="44.23" height="21.66" rx="2.31" style="fill:#7d5299"/><rect x="229.82" y="50.08" width="44.23" height="21.66" rx="2.31" style="fill:#7d5299"/><rect x="184.41" y="50.08" width="44.23" height="21.66" rx="2.31" style="fill:#7d5299;opacity:0.5"/><rect x="138.46" y="50.08" width="44.23" height="21.66" rx="2.31" style="fill:#7d5299;opacity:0.5"/><rect x="92.51" y="50.08" width="44.23" height="21.66" rx="2.31" style="fill:#7d5299"/><rect x="228.48" y="97.21" width="44.23" height="21.66" rx="2.31" style="fill:#7d5299"/><rect x="183.06" y="97.21" width="44.23" height="21.66" rx="2.31" style="fill:#7d5299;opacity:0.7000000000000001"/><rect x="137.11" y="97.21" width="44.23" height="21.66" rx="2.31" style="fill:#7d5299;opacity:0.5"/><rect x="91.16" y="97.21" width="44.23" height="21.66" rx="2.31" style="fill:#7d5299;opacity:0.5"/><rect x="208.09" y="73.64" width="44.23" height="21.66" rx="2.31" style="fill:#7d5299"/><rect x="162.68" y="73.64" width="44.23" height="21.66" rx="2.31" style="fill:#7d5299;opacity:0.5"/><rect x="116.73" y="73.64" width="44.23" height="21.66" rx="2.31" style="fill:#7d5299"/><rect x="70.78" y="73.64" width="44.23" height="21.66" rx="2.31" style="fill:#7d5299;opacity:0.7000000000000001"/><rect x="208.09" y="120.77" width="44.23" height="21.66" rx="2.31" style="fill:#7d5299"/><rect x="162.68" y="120.77" width="44.23" height="21.66" rx="2.31" style="fill:#7d5299;opacity:0.5"/><rect x="116.73" y="120.77" width="44.23" height="21.66" rx="2.31" style="fill:#7d5299"/><rect x="70.78" y="120.77" width="44.23" height="21.66" rx="2.31" style="fill:#7d5299;opacity:0.5"/><rect x="207.14" y="168.82" width="44.23" height="21.66" rx="2.31" style="fill:#7d5299;opacity:0.5"/><rect x="161.19" y="168.82" width="44.23" height="21.66" rx="2.31" style="fill:#7d5299"/><rect x="115.24" y="168.82" width="44.23" height="21.66" rx="2.31" style="fill:#7d5299;opacity:0.5"/><rect x="232.16" y="145.25" width="44.23" height="21.66" rx="2.31" style="fill:#7d5299"/><rect x="186.75" y="145.25" width="44.23" height="21.66" rx="2.31" style="fill:#7d5299;opacity:0.7000000000000001"/><rect x="140.8" y="145.25" width="44.23" height="21.66" rx="2.31" style="fill:#7d5299"/><rect x="94.85" y="145.25" width="44.23" height="21.66" rx="2.31" style="fill:#7d5299;opacity:0.5"/><rect x="48.27" y="145.25" width="44.23" height="21.66" rx="2.31" style="fill:#7d5299;opacity:0.7000000000000001"/><rect x="31.53" y="216.38" width="44.23" height="21.66" rx="2.31" style="fill:#7d5299"/><rect x="53.56" y="240.43" width="44.23" height="21.66" rx="2.31" style="fill:#7d5299;opacity:0.5"/><rect x="48.27" y="192.32" width="44.23" height="21.66" rx="2.31" style="fill:#7d5299;opacity:0.5"/><rect x="66.94" y="26.51" width="44.23" height="21.66" rx="2.31" style="fill:#7d5299;opacity:0.7000000000000001"/><rect x="20.99" y="26.51" width="44.23" height="21.66" rx="2.31" style="fill:#7d5299"/><rect x="45.95" y="49.9" width="44.23" height="21.66" rx="2.31" style="fill:#7d5299;opacity:0.7000000000000001"/><rect y="70.55" width="44.23" height="21.66" rx="2.31" style="fill:#7d5299"/><rect x="44.1" y="97.21" width="44.23" height="21.66" rx="2.31" style="fill:#7d5299;opacity:0.7000000000000001"/><rect x="232.16" y="192.38" width="44.23" height="21.66" rx="2.31" style="fill:#7d5299"/><rect x="186.75" y="192.38" width="44.23" height="21.66" rx="2.31" style="fill:#7d5299;opacity:0.5"/><rect x="140.8" y="192.38" width="44.23" height="21.66" rx="2.31" style="fill:#7d5299;opacity:0.5"/><rect x="94.85" y="192.38" width="44.23" height="21.66" rx="2.31" style="fill:#7d5299"/><rect x="282.98" y="240.43" width="44.23" height="21.66" rx="2.31" style="fill:#7d5299;opacity:0.5"/><rect x="262.6" y="216.87" width="44.23" height="21.66" rx="2.31" style="fill:#7d5299;opacity:0.5"/><rect x="236.82" y="240.43" width="44.23" height="21.66" rx="2.31" style="fill:#7d5299"/><rect x="191.41" y="240.43" width="44.23" height="21.66" rx="2.31" style="fill:#7d5299;opacity:0.7000000000000001"/><rect x="145.46" y="240.43" width="44.23" height="21.66" rx="2.31" style="fill:#7d5299;opacity:0.5"/><rect x="99.51" y="240.43" width="44.23" height="21.66" rx="2.31" style="fill:#7d5299;opacity:0.5"/><rect x="216.44" y="216.87" width="44.23" height="21.66" rx="2.31" style="fill:#7d5299"/><rect x="171.03" y="216.87" width="44.23" height="21.66" rx="2.31" style="fill:#7d5299;opacity:0.5"/><rect x="125.08" y="216.87" width="44.23" height="21.66" rx="2.31" style="fill:#7d5299"/><rect x="79.13" y="216.87" width="44.23" height="21.66" rx="2.31" style="fill:#7d5299;opacity:0.5"/><rect x="171.03" y="264" width="44.23" height="21.66" rx="2.31" style="fill:#7d5299;opacity:0.5"/><rect x="125.08" y="264" width="44.23" height="21.66" rx="2.31" style="fill:#7d5299"/><rect x="79.13" y="264" width="44.23" height="21.66" rx="2.31" style="fill:#7d5299;opacity:0.7000000000000001"/><rect x="53.56" y="286.14" width="44.23" height="21.66" rx="2.31" style="fill:#7d5299;opacity:0.5"/><rect x="191.41" y="286.14" width="44.23" height="21.66" rx="2.31" style="fill:#7d5299;opacity:0.7000000000000001"/><rect x="145.46" y="286.14" width="44.23" height="21.66" rx="2.31" style="fill:#7d5299;opacity:0.5"/><rect x="99.51" y="286.14" width="44.23" height="21.66" rx="2.31" style="fill:#7d5299;opacity:0.5"/><rect x="171.03" y="309.7" width="44.23" height="21.66" rx="2.31" style="fill:#7d5299;opacity:0.5"/><rect x="125.08" y="309.7" width="44.23" height="21.66" rx="2.31" style="fill:#7d5299"/><rect x="79.13" y="309.7" width="44.23" height="21.66" rx="2.31" style="fill:#7d5299;opacity:0.7000000000000001"/></g><ellipse cx="139.93" cy="324.54" rx="116.24" ry="6.04" style="fill:#a66dcc;opacity:0.21"/><g style="opacity:0.4"><path d="M127.11,120.58c10.94-10,16.37-29.56,27.54-39.2,3.38-2.92,3.43-13.06,10-11l-2.4,3.85c5.36-1.05,4.79-7.7,8.18-10.62,2,1.87,3,2.8,4.74,2.44-1.59,2.57-5,5.49-5.59,9l3,2.79c2.58-1.64,3-7.35,5.59-9L182,72.6c1,.93,1.78-.35,2.58-1.64l-3.2,5.14,4,3.72c1,.93,1.78-.35,2.58-1.63,2,1.86,4.75,2.43,4.93,4.65l-2.39,3.85c4.18-4.2,10.71-2.12,13.67.68-1.79.35,1.17,3.14-.61,3.49,5.35-1,11.69-1.18,9.48,4.88-25,47.7-57.71,90.17-87.65,133.22-2.59,1.64-3.76-1.51-5.73-3.37,3.19-5.13,7.38-9.33,7.8-15,.8-1.29-4.74-2.45-5.92-5.59l3.2-5.14c-2.16-4.07-6.72-4.29-8.88-8.37s3-7.35,1.84-10.49c.43-5.71-4.56-.23-7,3.62-1.18-3.14-1.6,2.57-3.57.71-4-3.73-7.89-7.45-7.66-15.37-.18-2.22-3.94-3.73-5.91-5.59C103.18,148.93,113.57,132.25,127.11,120.58Z" style="fill:#a66dcc"/><path d="M28.93,205.33c13-20.2,27.42-39.88,42.05-59.31,1.08-1.81,2.22-3.6,2.2-4.61,1.76-4.84-3.21,1.92-5.91,6.14,0-2-1.81,2.82-2.75,2.22a4.64,4.64,0,0,1-2.39-2.72,2.7,2.7,0,0,1-.76.15l.62-.88a6.34,6.34,0,0,1,0-.89c-2.16,1.93-2.88,4.87-4.89,6.9-.92-.65-1.37-1-2.47-.38,1.28-1.82,3.66-4.22,4.48-6.36l-1.37-1C56,146.11,55,149.48,53.23,151l-1.83-1.29c-.46-.32-1.1.58-1.74,1.49l2.56-3.63-1.83-1.29c-.46-.32-1.1.58-1.74,1.49-.91-.64-2.47-.38-2.29-1.61l1.93-2.73c-3,3.32-6.59,3.52-8,2.55,1.1-.58-.28-1.55.82-2.14-3.29,1.76-7,3.19-4.94-.76,21-32.76,45.95-64.18,69.29-95.33,1.74-1.49,2,.07,2.93.71-2.56,3.63-5.58,6.94-6.59,10.31-.64.91,2.47.39,2.74,1.94L102,64.33c.73,1.87,3.38,1,4.12,2.9s-2.75,4.86-2.48,6.42c-.53,1.78.25,1.43,1.38.31,6.58-10.43,12.93-21.65,20-30.41,3.18-3.93,5.79-12.18,10-13.5l-2.7,4.23c4.11-3.32,5.4-8.46,8.57-12.38.94.6,1.41.9,2.79-.21-1.8,2.82-5,6.75-6.3,9.87l1.41.9c2.27-2.52,4-7.35,6.3-9.87L147,23.8c.47.3,1.37-1.11,2.27-2.52l-3.6,5.64,1.89,1.2c.47.31,1.37-1.1,2.27-2.51.94.6,2.79-.21,2.36,1.5l-2.7,4.23a16.45,16.45,0,0,1,6.7-5.6,78.8,78.8,0,0,1,8.27-11.65c2.27-2.51,3.37-8.4,6.93-8.77l-1.8,2.81c3.21-1.91,3.59-5.62,5.86-8.13.94.6,1.41.9,2.48.27-1.19,1.87-3.46,4.38-4.18,6.56l1.41.9c1.67-1.57,2.52-5,4.19-6.56l1.89,1.21c.47.3,1.07-.64,1.66-1.58-.59.94-1.79,2.81-2.39,3.75l1.89,1.21c.47.3,1.07-.64,1.67-1.58.94.61,2.48.27,2.35,1.51-.59.94-1.19,1.87-1.79,2.81,2.87-3.45,6.42-3.82,7.84-2.91-1.08.64.34,1.54-.73,2.17,3.21-1.9,6.89-3.51,5,.54-19.52,33.7-42.95,66.22-64.83,98.41-1.67,1.58-2,0-3-.57,2.39-3.74,5.26-7.19,6.11-10.6.6-.94-2.48-.27-2.83-1.81L134.54,90c-.81-1.84-3.42-.87-4.24-2.71s2.52-5,2.17-6.53c.86-3.41-2.61,1-4.4,3.78,0,0,0,0,0,0-9.71,14.91-19.6,29.75-29.5,44.52a1.9,1.9,0,0,1,.3.5c.73,1.88-2.74,4.86-2.47,6.42-1,3.37,2.65-.85,4.58-3.58.27,1.56,1.28-1.81,2.19-1.17,1.83,1.29,3.66,2.58,2.47,7.18-.18,1.24,1.83,1.3,2.74,1.94-7.68,10.9-16,22.71-25.53,32.32C75.05,180.73,69.27,193.1,61.41,201c-2.38,2.4-3.76,8.23-7.32,8.43L56,206.75c-3.3,1.76-3.85,5.45-6.22,7.85-.92-.64-1.38-1-2.48-.38C48.6,212.4,51,210,51.8,207.86l-1.37-1c-1.74,1.5-2.75,4.87-4.49,6.36L44.11,212c-.46-.32-1.1.59-1.74,1.5l2.57-3.64-1.83-1.29c-.46-.32-1.1.59-1.74,1.5-.92-.65-2.47-.39-2.29-1.62L41,205.69c-3,3.31-6.59,3.51-8,2.55,1.1-.59-.27-1.56.83-2.14C30.57,207.85,26.82,209.29,28.93,205.33Z" style="fill:#a66dcc"/></g><line x1="106.47" y1="140.94" x2="178.36" y2="323.9" style="fill:none;stroke:#072733;stroke-linecap:round;stroke-miterlimit:10;stroke-width:5.800070000000001px"/><line x1="170.54" y1="140.94" x2="242.43" y2="323.9" style="fill:none;stroke:#072733;stroke-linecap:round;stroke-miterlimit:10;stroke-width:5.800070000000001px"/><line x1="118.94" y1="172.67" x2="184.68" y2="172.67" style="fill:none;stroke:#072733;stroke-linecap:round;stroke-miterlimit:10;stroke-width:5.800070000000001px"/><line x1="130.95" y1="203.23" x2="196.7" y2="203.23" style="fill:none;stroke:#072733;stroke-linecap:round;stroke-miterlimit:10;stroke-width:5.800070000000001px"/><line x1="143.2" y1="232.42" x2="208.94" y2="232.42" style="fill:none;stroke:#072733;stroke-linecap:round;stroke-miterlimit:10;stroke-width:5.800070000000001px"/><line x1="152.45" y1="259.45" x2="218.19" y2="259.45" style="fill:none;stroke:#072733;stroke-linecap:round;stroke-miterlimit:10;stroke-width:5.800070000000001px"/><line x1="163" y1="286.48" x2="228.74" y2="286.48" style="fill:none;stroke:#072733;stroke-linecap:round;stroke-miterlimit:10;stroke-width:5.800070000000001px"/><g style="opacity:0.54;mix-blend-mode:multiply"><line x1="106.47" y1="140.94" x2="178.36" y2="323.9" style="fill:none;stroke:#072733;stroke-linecap:round;stroke-miterlimit:10;stroke-width:5.800070000000001px"/><line x1="170.54" y1="140.94" x2="242.43" y2="323.9" style="fill:none;stroke:#072733;stroke-linecap:round;stroke-miterlimit:10;stroke-width:5.800070000000001px"/><line x1="118.94" y1="172.67" x2="184.68" y2="172.67" style="fill:none;stroke:#072733;stroke-linecap:round;stroke-miterlimit:10;stroke-width:5.800070000000001px"/><line x1="130.95" y1="203.23" x2="196.7" y2="203.23" style="fill:none;stroke:#072733;stroke-linecap:round;stroke-miterlimit:10;stroke-width:5.800070000000001px"/><line x1="143.2" y1="232.42" x2="208.94" y2="232.42" style="fill:none;stroke:#072733;stroke-linecap:round;stroke-miterlimit:10;stroke-width:5.800070000000001px"/><line x1="152.45" y1="259.45" x2="218.19" y2="259.45" style="fill:none;stroke:#072733;stroke-linecap:round;stroke-miterlimit:10;stroke-width:5.800070000000001px"/><line x1="163" y1="286.48" x2="228.74" y2="286.48" style="fill:none;stroke:#072733;stroke-linecap:round;stroke-miterlimit:10;stroke-width:5.800070000000001px"/></g><path d="M113.38,74.3c-10.26,1.94-16.14-9.75-16.14-9.75l-4.08,5.28,1.16,3.73a12.61,12.61,0,0,0,6.26,4c3,2.87,1.93,8,1.93,8a99.13,99.13,0,0,0,10.17-1.93l.65-2.21a4.92,4.92,0,0,1-2.52-4.74A9.22,9.22,0,0,0,113.38,74.3Z" style="fill:#f8985f"/><line x1="169.72" y1="140.94" x2="97.83" y2="323.9" style="fill:none;stroke:#072733;stroke-linecap:round;stroke-miterlimit:10;stroke-width:5.800070000000001px"/><line x1="105.65" y1="140.94" x2="33.76" y2="323.9" style="fill:none;stroke:#072733;stroke-linecap:round;stroke-miterlimit:10;stroke-width:5.800070000000001px"/><line x1="107.13" y1="140.94" x2="35.24" y2="323.9" style="fill:none;stroke:#072733;stroke-linecap:round;stroke-miterlimit:10;stroke-width:2.5778100000000004px;mix-blend-mode:multiply"/><line x1="157.25" y1="172.67" x2="91.51" y2="172.67" style="fill:none;stroke:#072733;stroke-linecap:round;stroke-miterlimit:10;stroke-width:5.800070000000001px"/><line x1="145.23" y1="203.23" x2="79.49" y2="203.23" style="fill:none;stroke:#072733;stroke-linecap:round;stroke-miterlimit:10;stroke-width:5.800070000000001px"/><line x1="132.99" y1="232.42" x2="67.25" y2="232.42" style="fill:none;stroke:#072733;stroke-linecap:round;stroke-miterlimit:10;stroke-width:5.800070000000001px"/><line x1="123.73" y1="259.45" x2="57.99" y2="259.45" style="fill:none;stroke:#072733;stroke-linecap:round;stroke-miterlimit:10;stroke-width:5.800070000000001px"/><line x1="113.19" y1="286.48" x2="47.45" y2="286.48" style="fill:none;stroke:#072733;stroke-linecap:round;stroke-miterlimit:10;stroke-width:5.800070000000001px"/><line x1="111.9" y1="287.77" x2="46.16" y2="287.77" style="fill:none;stroke:#072733;stroke-linecap:round;stroke-miterlimit:10;stroke-width:2.5778100000000004px;mix-blend-mode:multiply"/><line x1="122.07" y1="260.74" x2="56.33" y2="260.74" style="fill:none;stroke:#072733;stroke-linecap:round;stroke-miterlimit:10;stroke-width:2.5778100000000004px;mix-blend-mode:multiply"/><line x1="132.2" y1="234.17" x2="66.45" y2="234.17" style="fill:none;stroke:#072733;stroke-linecap:round;stroke-miterlimit:10;stroke-width:2.5778100000000004px;mix-blend-mode:multiply"/><line x1="144.1" y1="204.51" x2="78.36" y2="204.51" style="fill:none;stroke:#072733;stroke-linecap:round;stroke-miterlimit:10;stroke-width:2.5778100000000004px;mix-blend-mode:multiply"/><line x1="156.61" y1="174.65" x2="90.86" y2="174.65" style="fill:none;stroke:#072733;stroke-linecap:round;stroke-miterlimit:10;stroke-width:2.5778100000000004px;mix-blend-mode:multiply"/><path d="M118.81,138.29l-6.23,33.51s-9.67,45.61-9.67,49,10.53,7.88,10.1,9.81-17.19-1.07-18.91-1.93,1.57-6.21,1.57-8.79-3.93-24.29-3.07-33.31A59.92,59.92,0,0,1,97,170.26a7.26,7.26,0,0,0,.51-3.6c-.84-7.5-3.5-34.91,1.3-43.4C104.41,113.37,118.81,138.29,118.81,138.29Z" style="fill:#ff877d"/><path d="M118.81,138.29l-6.23,33.51s-9.67,45.61-9.67,49,10.53,7.88,10.1,9.81-17.19-1.07-18.91-1.93,1.57-6.21,1.57-8.79-3.93-24.29-3.07-33.31A59.92,59.92,0,0,1,97,170.26a7.26,7.26,0,0,0,.51-3.6c-.84-7.5-3.5-34.91,1.3-43.4C104.41,113.37,118.81,138.29,118.81,138.29Z" style="fill:#ff877d;opacity:0.2;mix-blend-mode:multiply"/><path d="M103,220.14c.45-5.63,4.78-41.94,5.47-46.56.75-5-2.8-36.26-2.8-36.26l3-3.54H116c1.73,2.58,2.85,4.51,2.85,4.51l-6.23,33.51S103.76,213.42,103,220.14Z" style="fill:#ff877d;opacity:0.30000000000000004;mix-blend-mode:multiply"/><path d="M107.07,119.17c19.92-1.1,35,12.92,40.21,18.92,3.1,3.59,3.39,6.3,3.28,8.9h0s.93,3.87-8.57,21.91c0,0-12.73,22.72-11.6,26.1,0,0,.16,3.23,5.48,4.52s5.8,3.7,4.35,3.7-17.73.16-18.53-1.13,1.51-5.64,1.51-8.05A142.48,142.48,0,0,1,124.67,171c.31-1.93,2.8-14.38,5.57-18.85a1.75,1.75,0,0,0-.85-2.57c-8-3.11-22.22-10.8-26-14.12a52.86,52.86,0,0,1-6.8-7Z" style="fill:#ff877d"/><path d="M104.63,88.7l-1.55-5.07s-3.12.59-6.54,6.13-13,32.86-24.5,40.61a29.89,29.89,0,0,1-5.19,4.46,3.45,3.45,0,0,0-1.57,2.7c-.17,2,7.64-2.73,9.87-3.91,0,0,16.35-6.85,23.2-17S104.63,88.7,104.63,88.7Z" style="fill:#33959f"/><path d="M98.49,56.69A9.7,9.7,0,0,1,105,57.9c3,2,4.76,4.73,6.09,5.25a6.73,6.73,0,0,0,2.1.55,2.22,2.22,0,0,1-.42,2.18s3,4.08,1.26,7.32c-2.11,4-6.61,5.61-11,4.88s-6.9-2.11-9.7-5.6S90,58.2,98.49,56.69Z" style="fill:#f8985f"/><path d="M113.38,74.3c-10.26,1.94-16.14-9.75-16.14-9.75l-4.08,5.28,1.16,3.73a12.61,12.61,0,0,0,6.26,4c3,2.87,1.93,8,1.93,8a99.13,99.13,0,0,0,10.17-1.93l.65-2.21a4.92,4.92,0,0,1-2.52-4.74A9.22,9.22,0,0,0,113.38,74.3Z" style="fill:#f8985f;opacity:0.30000000000000004;mix-blend-mode:multiply"/><path d="M96.84,60.19A41.6,41.6,0,0,1,110.48,55s.08,1.13-3.36,2.57c-1.72.72,3.67-.51,3.67-.51s-.79,4.48-10.7,8.06S96.84,60.19,96.84,60.19Z" style="fill:#0c1d25"/><path d="M93.1,61.73S101,60,97.5,69.92c-1.27,3.64,6.6,6.54,5.55,10.64a6,6,0,0,1-1.56,3s.23-1.44-3.35-3.51-7.3-4.83-8-10A10.19,10.19,0,0,1,93.1,61.73Z" style="fill:#0c1d25"/><path d="M98,77.57A14.59,14.59,0,0,1,99.55,81a12.84,12.84,0,0,0-1.41-.92c-3.57-2.07-7.3-4.83-8-10,0,0,0-.09,0-.14l14-10.88S92.78,68.73,98,77.57Z" style="fill:#0c1d25;mix-blend-mode:multiply"/><path d="M109.61,52.24S97.46,68.15,89.43,75.3a.35.35,0,0,1-.55-.39l.38-1a1.56,1.56,0,0,0-.2-1.53c-1.67-2.23-6.21-9.66,1.08-16.54,2.54-2.39,6.76-4.58,12.46-1.83a3,3,0,0,0,3.38-.63c1.55-1.6,3.79-3.74,4.33-3.5C111.17,50.31,109.61,52.24,109.61,52.24Z" style="fill:#ffc937"/><path d="M97.94,63.9c-5.18,3.12-9.15.28-11.43-2.35-1.38,4.89,1.34,9.24,2.55,10.86a1.56,1.56,0,0,1,.2,1.53l-.38,1a.35.35,0,0,0,.55.39,147,147,0,0,0,13.4-14.57C101.69,61.56,100.12,62.6,97.94,63.9Z" style="fill:#ffc937;opacity:0.5;mix-blend-mode:multiply"/><path d="M99,69.2s-3.43-.52-3.38,1.6,2.65,3.87,4.14,3" style="fill:#f8985f"/><path d="M77.25,159.42l4.56-6s-.61-16.51-14.28-15.81c0,0-10.44.24-10.44,17.32S77.25,159.42,77.25,159.42Z" style="fill:none;stroke:#bf9729;stroke-miterlimit:10;stroke-width:1.28891px"/><path d="M104.63,88.7l-1.55-5.07s-3.12.59-6.54,6.13-13,32.86-24.5,40.61a29.89,29.89,0,0,1-5.19,4.46c-.71.42,7.36.35,7.93-1.67,0,0,16.72-6.39,23.57-16.54S104.63,88.7,104.63,88.7Z" style="fill:#33959f"/><path d="M66.85,134.83A29.89,29.89,0,0,0,72,130.37a32.15,32.15,0,0,0,7.61-8c2.15,1.13,4.74,3,6,5.66a108.06,108.06,0,0,1-11.49,6.24c-1.73,3.38-2.71,2.58-2.71,2.58-1.09-.28-1.88.48-2.44,1.42a2,2,0,0,1-3.58-1.47A3.25,3.25,0,0,1,66.85,134.83Z" style="fill:#f8985f"/><path d="M130.41,195a10.84,10.84,0,0,0,5.48,4.52c5.31,1.28,5.8,3.7,4.35,3.7s-17.73.16-18.53-1.13c-.54-.85.79-5,1.42-7.09C127.05,196.05,128.55,196.29,130.41,195Z" style="fill:#0c1d25"/><path d="M95.42,221.47c6.71,1.89,7.49-.62,7.49-.62,0,3.43,10.53,7.88,10.1,9.81s-17.19-1.07-18.91-1.93C92.68,228,94.69,224.22,95.42,221.47Z" style="fill:#0c1d25"/><path d="M82.31,153.47V183c0,.87-5.76,2.15-12.86,2.15S56.59,183.85,56.59,183V153.47Z" style="fill:#ffc937"/><path d="M56.59,153.47c0,.88,5.76,1.58,12.86,1.58s12.86-.7,12.86-1.58-5.76-1.58-12.86-1.58S56.59,152.6,56.59,153.47Z" style="fill:#bf9729"/><path d="M79.5,154.21a52.85,52.85,0,0,1-10.84.84,52.67,52.67,0,0,1-10.83-.84,52.49,52.49,0,0,1,10.83-.85A52.67,52.67,0,0,1,79.5,154.21Z" style="fill:#813ec1;opacity:0.63"/><path d="M97.31,221.92a5.85,5.85,0,0,0,2.31,5.68c2.71,2.23,9.35,3.18,12.69,3.53-3.23.83-16.68-1.63-18.21-2.4s.59-4.51,1.32-7.26C96.12,221.67,96.74,221.81,97.31,221.92Z" style="fill:#0c1d25;mix-blend-mode:multiply"/><path d="M144.46,81.12A2.25,2.25,0,0,0,146.71,79l2.54-54.61a2.26,2.26,0,1,0-4.51-.21L142.2,78.76a2.25,2.25,0,0,0,2.15,2.35Z" style="fill:#0c1d25"/><path d="M144.74,24.15a2.27,2.27,0,0,1,1.61-2,1.67,1.67,0,0,0-.06.39l-2.54,54.6a2.25,2.25,0,0,0,2.15,2.36h.1a2.27,2.27,0,0,0,.65-.1,2.24,2.24,0,0,1-2.19,1.77h-.11a2.25,2.25,0,0,1-2.15-2.35Z" style="fill:#0c1d25;mix-blend-mode:multiply"/><path d="M121.71,202.09c-.54-.85.79-5,1.42-7.09a1.41,1.41,0,0,0,.22.06c.33,1.93,1.5,5.95,5.48,6.42,5.25.62,11.41,1.74,11.41,1.74C138.79,203.22,122.51,203.38,121.71,202.09Z" style="fill:#0c1d25;mix-blend-mode:multiply"/><path d="M143.58,45.81S139,59.53,132,66.53,115.92,82,103.08,83.63a4.18,4.18,0,0,0-2.34,4c0,3-4,28.71-4.2,40.85,0,0,12.84,6.77,31.28-5.13L125,94.84s19.53-10.42,23.65-44a17.84,17.84,0,0,0,.06-4.73,1.92,1.92,0,0,1,.77-1.82c2.51-2.12,3.36-4.17,1.81-7a1.33,1.33,0,0,0-2.38.09,5.22,5.22,0,0,1-3.78,3.07C141.18,41.1,142.59,42.21,143.58,45.81Z" style="fill:#33959f"/><path d="M82.31,179.45V183c0,.87-5.76,2.15-12.86,2.15S56.59,183.85,56.59,183v-26.7C58.66,169.3,66.07,179,82.31,179.45Z" style="fill:#ffc937;opacity:0.49;mix-blend-mode:multiply"/><path d="M125,94.84l2.8,28.48S112.18,135,96.54,128.45C96.54,128.45,122.53,122.36,125,94.84Z" style="fill:#33959f;opacity:0.19;mix-blend-mode:multiply"/><path d="M143.58,45.81c-1-3.6-2.4-4.71,1.57-5.41a5.22,5.22,0,0,0,3.78-3.07,1.33,1.33,0,0,1,2.38-.09c1.55,2.87.7,4.92-1.81,7a1.92,1.92,0,0,0-.77,1.82,17.84,17.84,0,0,1-.06,4.73c-.32,2.64-.75,5.11-1.25,7.47A20.72,20.72,0,0,1,139.75,55,78.79,78.79,0,0,0,143.58,45.81Z" style="fill:#f8985f"/><path d="M99,69.2s-3.43-.52-3.38,1.6,2.65,3.87,4.14,3" style="fill:#f8985f;opacity:0.30000000000000004;mix-blend-mode:multiply"/><path d="M133.83,23.62l26,1.2a1.48,1.48,0,0,0,1.56-1.42l.29-6.68a1.49,1.49,0,0,0-1.42-1.55L157,15,134.25,14a1.5,1.5,0,0,0-1.56,1.42l-.29,6.68A1.5,1.5,0,0,0,133.83,23.62Z" style="fill:#ffc937"/><path d="M132.4,22.06l.17-3.82c2.25,1.09,6.62,2.51,14.46,2.84,9.33.4,13.1-.86,14.52-1.62l-.18,3.94a1.48,1.48,0,0,1-1.56,1.42l-26-1.2A1.5,1.5,0,0,1,132.4,22.06Z" style="fill:#ffc937;opacity:0.53;mix-blend-mode:multiply"/><path d="M162.19,18.64l.05-1.78a2.15,2.15,0,0,0-2.08-2.22l-25.22-.86c-1.74,0-2.17.82-2.31,2l-.18,1.45a1,1,0,0,0,1.2,1.13.83.83,0,0,0,.61-.81c.17-1.43,1.74-1.54,1.61.59-.24,3.88,1.1,5.12,2.37,3.87s1.44-5.73,1.94-4.57.14,3.5,2.31,3.32c1.23-.11,1.34-4.42,1.51-3.1s.44,2.38,1.38,2.22.75-1.14,1.47-.89c1.19.42,1.06,3.92,3,3.92,3,0,1.5-5.13,2.77-4.47s1.92,2.12,3.48,1.71,1.67-4.44,3.41-3C160.59,18,161.62,21.35,162.19,18.64Z" style="fill:#a45bdd;opacity:0.63"/><path d="M143.58,45.81s-8.65,34.81-30.25,35.61v-.73C121,77.21,127.06,71.51,132,66.53,139,59.53,143.58,45.81,143.58,45.81Z" style="fill:#33959f;opacity:0.18;mix-blend-mode:multiply"/><path d="M80.13,153.9a1.76,1.76,0,0,1,2.06,1.85c-.2,2.81-.69,5.83-1.77,4.84-1.58-1.45-1.49-6-3-4.25-1.35,1.57-3.28,6.92-4.07,2.45s-2.57-3.82-3.08-2.51c-.65,1.71.4,7.11-1.63,7.11-2.43,0-1.46-6.7-3.38-7.11-1.73-.37-1,2-2.47,4-1.79,2.45-2.19-4-3.24-4-2.25,0-2.2,3.42-3,1.8a6.47,6.47,0,0,1-.29-3.22,1.31,1.31,0,0,1,1.52-1.15A70.34,70.34,0,0,0,80.13,153.9Z" style="fill:#a45bdd;opacity:0.63"/><path d="M129.39,149.54s5.41,1.55,3.64,3.29c-6.5,6.38-9.53,23.38-9.67,32.3,0,0,.5-16.26,4.17-26.17a35.63,35.63,0,0,1,2.71-6.85S131.15,150.26,129.39,149.54Z" style="fill:#ff877d;opacity:0.30000000000000004;mix-blend-mode:multiply"/></g></g></g></svg>